<svg version="1.2" xmlns="http://www.w3.org/2000/svg" viewBox="0 0 800 800" width="800" height="800">
	<style>
		.s0 { fill-opacity: .25;fill: #ffe5c7 } 
		.s1 { opacity: .31;fill: #ff8a05 } 
		.s2 { opacity: .97;fill: #ff8a05 } 
		.s3 { opacity: .71;fill: #ff8a05 } 
		.s4 { opacity: .41;fill: #ff8a05 } 
		.s5 { opacity: .8;fill: #ff8a05 } 
		.s6 { opacity: .58;fill: #ff8a05 } 
		.s7 { opacity: .79;fill: #ff8a05 } 
		.s8 { opacity: .6;fill: #ff8a05 } 
		.s9 { opacity: .67;fill: #ff8a05 } 
		.s10 { opacity: .14;fill: #ff8a05 } 
		.s11 { opacity: .34;fill: #ff8a05 } 
		.s12 { opacity: .29;fill: #ff8a05 } 
		.s13 { opacity: .75;fill: #ff8a05 } 
		.s14 { opacity: .5;fill: #ff8a05 } 
		.s15 { opacity: .7;fill: #ff8a05 } 
		.s16 { opacity: .95;fill: #ff8a05 } 
		.s17 { opacity: .82;fill: #ff8a05 } 
		.s18 { opacity: .92;fill: #ff8a05 } 
		.s19 { opacity: .56;fill: #ff8a05 } 
		.s20 { opacity: .52;fill: #ff8a05 } 
		.s21 { opacity: .17;fill: #ff8a05 } 
		.s22 { opacity: .39;fill: #ff8a05 } 
		.s23 { opacity: .63;fill: #ff8a05 } 
		.s24 { opacity: .65;fill: #ff8a05 } 
		.s25 { opacity: .48;fill: #ff8a05 } 
		.s26 { opacity: .28;fill: #ff8a05 } 
		.s27 { opacity: .32;fill: #ff8a05 } 
		.s28 { opacity: .38;fill: #ff8a05 } 
		.s29 { opacity: .61;fill: #ff8a05 } 
		.s30 { opacity: .15;fill: #ff8a05 } 
		.s31 { opacity: .46;fill: #ff8a05 } 
		.s32 { opacity: .81;fill: #ff8a05 } 
		.s33 { opacity: .78;fill: #ff8a05 } 
		.s34 { opacity: .9;fill: #ff8a05 } 
		.s35 { opacity: .19;fill: #ff8a05 } 
		.s36 { opacity: .69;fill: #ff8a05 } 
		.s37 { opacity: .68;fill: #ff8a05 } 
		.s38 { opacity: .27;fill: #ff8a05 } 
		.s39 { opacity: .93;fill: #ff8a05 } 
		.s40 { opacity: .54;fill: #ff8a05 } 
		.s41 { opacity: .22;fill: #ff8a05 } 
		.s42 { opacity: .36;fill: #ff8a05 } 
		.s43 { opacity: .73;fill: #ff8a05 } 
		.s44 { opacity: .35;fill: #ff8a05 } 
		.s45 { opacity: .3;fill: #ff8a05 } 
		.s46 { opacity: .62;fill: #ff8a05 } 
		.s47 { opacity: .74;fill: #ff8a05 } 
		.s48 { opacity: .49;fill: #ff8a05 } 
		.s49 { opacity: .43;fill: #ff8a05 } 
		.s50 { opacity: .47;fill: #ff8a05 } 
		.s51 { opacity: .21;fill: #ff8a05 } 
		.s52 { opacity: .89;fill: #ff8a05 } 
		.s53 { opacity: .57;fill: #ff8a05 } 
		.s54 { opacity: .51;fill: #ff8a05 } 
		.s55 { opacity: .66;fill: #ff8a05 } 
		.s56 { opacity: .37;fill: #ff8a05 } 
		.s57 { opacity: .84;fill: #ff8a05 } 
		.s58 { opacity: .26;fill: #ff8a05 } 
		.s59 { opacity: .45;fill: #ff8a05 } 
		.s60 { opacity: .13;fill: #ff8a05 } 
		.s61 { opacity: .83;fill: #ff8a05 } 
		.s62 { opacity: .25;fill: #ff8a05 } 
		.s63 { opacity: .11;fill: #ff8a05 } 
		.s64 { opacity: .2;fill: #ff8a05 } 
		.s65 { opacity: .98;fill: #ff8a05 } 
		.s66 { opacity: .12;fill: #ff8a05 } 
		.s67 { opacity: .94;fill: #ff8a05 } 
		.s68 { opacity: .16;fill: #ff8a05 } 
		.s69 { fill: #ff8a05 } 
		.s70 { opacity: .99;fill: #ff8a05 } 
		.s71 { opacity: .55;fill: #ff8a05 } 
		.s72 { opacity: .96;fill: #ff8a05 } 
		.s73 { opacity: .4;fill: #ff8a05 } 
		.s74 { opacity: .85;fill: #ff8a05 } 
		.s75 { opacity: .53;fill: #ff8a05 } 
		.s76 { opacity: .87;fill: #ff8a05 } 
		.s77 { opacity: .1;fill: #ff8a05 } 
		.s78 { opacity: 1;fill: #ff8a05 } 
		.s79 { opacity: .44;fill: #ff8a05 } 
		.s80 { opacity: .18;fill: #ff8a05 } 
		.s81 { opacity: .42;fill: #ff8a05 } 
		.s82 { opacity: .59;fill: #ff8a05 } 
		.s83 { opacity: .86;fill: #ff8a05 } 
		.s84 { opacity: .76;fill: #ff8a05 } 
		.s85 { opacity: .88;fill: #ff8a05 } 
		.s86 { opacity: .64;fill: #ff8a05 } 
		.s87 { opacity: .24;fill: #ff8a05 } 
		.s88 { opacity: .72;fill: #ff8a05 } 
		.s89 { opacity: .33;fill: #ff8a05 } 
		.s90 { opacity: .77;fill: #ff8a05 } 
		.s91 { opacity: .91;fill: #ff8a05 } 
		.s92 { opacity: .23;fill: #ff8a05 } 
	</style>
	<path fill-rule="evenodd" class="s0" d="m0 0h800v800h-800z"/>
	<g style="opacity: .3">
		<path fill-rule="evenodd" class="s1" d="m314.91 328.77c-3.23 0-5.84-2.61-5.84-5.83 0-3.23 2.61-5.84 5.84-5.84 3.22 0 5.83 2.61 5.83 5.84 0 3.22-2.61 5.83-5.83 5.83z"/>
		<path fill-rule="evenodd" class="s2" d="m97.59 716.22c-3.58 0-6.47-2.88-6.47-6.46 0-3.57 2.89-6.46 6.47-6.46 3.57 0 6.46 2.89 6.46 6.46 0 3.58-2.89 6.46-6.46 6.46z"/>
		<path fill-rule="evenodd" class="s3" d="m149.06 430.04c-3.42 0-6.17-2.75-6.17-6.17 0-3.41 2.75-6.16 6.17-6.16 3.41 0 6.16 2.75 6.16 6.16 0 3.42-2.75 6.17-6.16 6.17z"/>
		<path fill-rule="evenodd" class="s4" d="m603.22 615.14c-4.22 0-7.64-3.41-7.64-7.64 0-4.22 3.42-7.63 7.64-7.63 4.22 0 7.64 3.41 7.64 7.63 0 4.23-3.42 7.64-7.64 7.64z"/>
		<path fill-rule="evenodd" class="s5" d="m495.58 684.1c-4.1 0-7.42-3.32-7.42-7.42 0-4.1 3.32-7.42 7.42-7.42 4.1 0 7.42 3.32 7.42 7.42 0 4.1-3.32 7.42-7.42 7.42z"/>
		<path fill-rule="evenodd" class="s6" d="m536.28 308.59c-2.28 0-4.13-1.84-4.13-4.13 0-2.29 1.85-4.13 4.13-4.13 2.29 0 4.13 1.84 4.13 4.13 0 2.29-1.84 4.13-4.13 4.13z"/>
		<path fill-rule="evenodd" class="s7" d="m269.52 793.53c-3.02 0-5.47-2.44-5.47-5.47 0-3.02 2.45-5.46 5.47-5.46 3.03 0 5.47 2.44 5.47 5.46 0 3.03-2.44 5.47-5.47 5.47z"/>
		<path fill-rule="evenodd" class="s8" d="m85.55 559.45c-4.79 0-8.67-3.88-8.67-8.68 0-4.8 3.88-8.68 8.67-8.68 4.8 0 8.68 3.88 8.68 8.68 0 4.8-3.88 8.68-8.68 8.68z"/>
		<path fill-rule="evenodd" class="s9" d="m472.21 788.39c-2.71 0-4.9-2.19-4.9-4.9 0-2.71 2.19-4.89 4.9-4.89 2.71 0 4.89 2.18 4.89 4.89 0 2.71-2.18 4.9-4.89 4.9z"/>
		<path fill-rule="evenodd" class="s10" d="m760.23 141.04c-2.58 0-4.67-2.09-4.67-4.68 0-2.58 2.09-4.67 4.67-4.67 2.59 0 4.68 2.09 4.68 4.67 0 2.59-2.09 4.68-4.68 4.68z"/>
		<path fill-rule="evenodd" class="s11" d="m23.98 281.47c-4.54 0-8.2-3.66-8.2-8.2 0-4.54 3.66-8.2 8.2-8.2 4.54 0 8.2 3.66 8.2 8.2 0 4.54-3.66 8.2-8.2 8.2z"/>
		<path fill-rule="evenodd" class="s12" d="m287.21 608.27c-2.96 0-5.34-2.38-5.34-5.34 0-2.95 2.38-5.34 5.34-5.34 2.95 0 5.34 2.39 5.34 5.34 0 2.96-2.39 5.34-5.34 5.34z"/>
		<path fill-rule="evenodd" class="s13" d="m16.61 402.53c-2.78 0-5.03-2.25-5.03-5.03 0-2.78 2.25-5.03 5.03-5.03 2.78 0 5.02 2.25 5.02 5.03 0 2.78-2.24 5.03-5.02 5.03z"/>
		<path fill-rule="evenodd" class="s14" d="m677.81 703.43c-2.17 0-3.92-1.75-3.92-3.91 0-2.17 1.75-3.92 3.92-3.92 2.16 0 3.91 1.75 3.91 3.92 0 2.16-1.75 3.91-3.91 3.91z"/>
		<path fill-rule="evenodd" class="s15" d="m755.47 671.96c-4.27 0-7.72-3.45-7.72-7.71 0-4.27 3.45-7.72 7.72-7.72 4.26 0 7.71 3.45 7.71 7.72 0 4.26-3.45 7.71-7.71 7.71z"/>
		<path fill-rule="evenodd" class="s16" d="m39.54 754.13c-1.82 0-3.29-1.47-3.29-3.28 0-1.82 1.47-3.29 3.29-3.29 1.81 0 3.28 1.47 3.28 3.29 0 1.81-1.47 3.28-3.28 3.28z"/>
		<path fill-rule="evenodd" class="s16" d="m729.17 791.27c-1.99 0-3.59-1.6-3.59-3.59 0-1.98 1.6-3.59 3.59-3.59 1.98 0 3.59 1.61 3.59 3.59 0 1.99-1.61 3.59-3.59 3.59z"/>
		<path fill-rule="evenodd" class="s17" d="m293.76 381.47c-2.61 0-4.73-2.11-4.73-4.73 0-2.61 2.12-4.72 4.73-4.72 2.61 0 4.73 2.11 4.73 4.72 0 2.62-2.12 4.73-4.73 4.73z"/>
		<path fill-rule="evenodd" class="s18" d="m625.51 16.7c-1.7 0-3.07-1.38-3.07-3.08 0-1.7 1.37-3.07 3.07-3.07 1.71 0 3.08 1.37 3.08 3.07 0 1.7-1.37 3.08-3.08 3.08z"/>
		<path fill-rule="evenodd" class="s6" d="m393.61 790.22c-2.89 0-5.23-2.34-5.23-5.23 0-2.89 2.34-5.23 5.23-5.23 2.89 0 5.23 2.34 5.23 5.23 0 2.89-2.34 5.23-5.23 5.23z"/>
		<path fill-rule="evenodd" class="s19" d="m665.27 142.09c-3.29 0-5.96-2.66-5.96-5.96 0-3.29 2.67-5.96 5.96-5.96 3.3 0 5.96 2.67 5.96 5.96 0 3.3-2.66 5.96-5.96 5.96z"/>
		<path fill-rule="evenodd" class="s20" d="m532.01 501.87c-3.3 0-5.97-2.66-5.97-5.96 0-3.3 2.67-5.97 5.97-5.97 3.3 0 5.96 2.67 5.96 5.97 0 3.3-2.66 5.96-5.96 5.96z"/>
		<path fill-rule="evenodd" class="s21" d="m435.64 380.82c-4.82 0-8.71-3.9-8.71-8.72 0-4.82 3.89-8.71 8.71-8.71 4.82 0 8.72 3.89 8.72 8.71 0 4.82-3.9 8.72-8.72 8.72z"/>
		<path fill-rule="evenodd" class="s22" d="m744.02 479.87c-3.66 0-6.62-2.96-6.62-6.63 0-3.66 2.96-6.63 6.62-6.63 3.67 0 6.63 2.97 6.63 6.63 0 3.67-2.96 6.63-6.63 6.63z"/>
		<path fill-rule="evenodd" class="s23" d="m234.02 772.03c-4.26 0-7.7-3.45-7.7-7.7 0-4.26 3.44-7.7 7.7-7.7 4.25 0 7.69 3.44 7.69 7.7 0 4.25-3.44 7.7-7.69 7.7z"/>
		<path fill-rule="evenodd" class="s24" d="m628.45 694.28c-4.64 0-8.38-3.75-8.38-8.39 0-4.63 3.74-8.38 8.38-8.38 4.64 0 8.38 3.75 8.38 8.38 0 4.64-3.74 8.39-8.38 8.39z"/>
		<path fill-rule="evenodd" class="s25" d="m162.75 735.72c-2.91 0-5.25-2.35-5.25-5.26 0-2.9 2.34-5.25 5.25-5.25 2.9 0 5.25 2.35 5.25 5.25 0 2.91-2.35 5.26-5.25 5.26z"/>
		<path fill-rule="evenodd" class="s26" d="m460.5 122.18c-3.66 0-6.61-2.96-6.61-6.62 0-3.65 2.95-6.61 6.61-6.61 3.66 0 6.61 2.96 6.61 6.61 0 3.66-2.95 6.62-6.61 6.62z"/>
		<path fill-rule="evenodd" class="s11" d="m241.4 267.78c-3.66 0-6.62-2.96-6.62-6.61 0-3.66 2.96-6.62 6.62-6.62 3.65 0 6.61 2.96 6.61 6.62 0 3.65-2.96 6.61-6.61 6.61z"/>
		<path fill-rule="evenodd" class="s27" d="m749.73 758.32c-2.56 0-4.64-2.07-4.64-4.64 0-2.57 2.08-4.64 4.64-4.64 2.57 0 4.64 2.07 4.64 4.64 0 2.57-2.07 4.64-4.64 4.64z"/>
		<path fill-rule="evenodd" class="s28" d="m463.45 181.81c-4.06 0-7.34-3.28-7.34-7.33 0-4.06 3.28-7.33 7.34-7.33 4.05 0 7.33 3.27 7.33 7.33 0 4.05-3.28 7.33-7.33 7.33z"/>
		<path fill-rule="evenodd" class="s29" d="m157.21 376.27c-2.03 0-3.67-1.64-3.67-3.67 0-2.02 1.64-3.66 3.67-3.66 2.03 0 3.66 1.64 3.66 3.66 0 2.03-1.63 3.67-3.66 3.67z"/>
		<path fill-rule="evenodd" class="s29" d="m259.36 382.2c-3.5 0-6.32-2.83-6.32-6.32 0-3.5 2.82-6.33 6.32-6.33 3.5 0 6.33 2.83 6.33 6.33 0 3.49-2.83 6.32-6.33 6.32z"/>
		<path fill-rule="evenodd" class="s6" d="m463.81 478.48c-3.48 0-6.29-2.82-6.29-6.3 0-3.48 2.81-6.3 6.29-6.3 3.49 0 6.3 2.82 6.3 6.3 0 3.48-2.81 6.3-6.3 6.3z"/>
		<path fill-rule="evenodd" class="s30" d="m12.87 222.4c-3.76 0-6.81-3.04-6.81-6.81 0-3.77 3.05-6.81 6.81-6.81 3.77 0 6.81 3.04 6.81 6.81 0 3.77-3.04 6.81-6.81 6.81z"/>
		<path fill-rule="evenodd" class="s31" d="m583.94 93.74c-4.01 0-7.25-3.24-7.25-7.25 0-4.01 3.24-7.25 7.25-7.25 4.01 0 7.25 3.24 7.25 7.25 0 4.01-3.24 7.25-7.25 7.25z"/>
		<path fill-rule="evenodd" class="s13" d="m71.75 789.82c-2.82 0-5.1-2.28-5.1-5.1 0-2.82 2.28-5.09 5.1-5.09 2.82 0 5.09 2.27 5.09 5.09 0 2.82-2.27 5.1-5.09 5.1z"/>
		<path fill-rule="evenodd" class="s32" d="m19.89 791.51c-3.15 0-5.69-2.55-5.69-5.69 0-3.15 2.54-5.69 5.69-5.69 3.14 0 5.69 2.54 5.69 5.69 0 3.14-2.55 5.69-5.69 5.69z"/>
		<path fill-rule="evenodd" class="s33" d="m240.64 466.52c-2.78 0-5.02-2.25-5.02-5.03 0-2.78 2.24-5.03 5.02-5.03 2.78 0 5.03 2.25 5.03 5.03 0 2.78-2.25 5.03-5.03 5.03z"/>
		<path fill-rule="evenodd" class="s34" d="m409.83 204.69c-2.74 0-4.96-2.21-4.96-4.95 0-2.74 2.22-4.96 4.96-4.96 2.74 0 4.96 2.22 4.96 4.96 0 2.74-2.22 4.95-4.96 4.95z"/>
		<path fill-rule="evenodd" class="s35" d="m271.62 506.05c-4.71 0-8.52-3.8-8.52-8.51 0-4.71 3.81-8.51 8.52-8.51 4.71 0 8.51 3.8 8.51 8.51 0 4.71-3.8 8.51-8.51 8.51z"/>
		<path fill-rule="evenodd" class="s25" d="m345.33 23.05c-3.2 0-5.79-2.59-5.79-5.79 0-3.2 2.59-5.79 5.79-5.79 3.2 0 5.79 2.59 5.79 5.79 0 3.2-2.59 5.79-5.79 5.79z"/>
		<path fill-rule="evenodd" class="s36" d="m492.06 33.95c-5.82 0-10.53-4.71-10.53-10.54 0-5.82 4.71-10.53 10.53-10.53 5.83 0 10.54 4.71 10.54 10.53 0 5.83-4.71 10.54-10.54 10.54z"/>
		<path fill-rule="evenodd" class="s37" d="m258.76 292.17c-3.63 0-6.57-2.94-6.57-6.57 0-3.63 2.94-6.57 6.57-6.57 3.63 0 6.57 2.94 6.57 6.57 0 3.63-2.94 6.57-6.57 6.57z"/>
		<path fill-rule="evenodd" class="s38" d="m723.97 390.82c-4.23 0-7.65-3.42-7.65-7.65 0-4.24 3.42-7.66 7.65-7.66 4.23 0 7.66 3.42 7.66 7.66 0 4.23-3.43 7.65-7.66 7.65z"/>
		<path fill-rule="evenodd" class="s32" d="m89.88 28.79c-3.59 0-6.48-2.89-6.48-6.47 0-3.58 2.89-6.48 6.48-6.48 3.58 0 6.47 2.9 6.47 6.48 0 3.58-2.89 6.47-6.47 6.47z"/>
		<path fill-rule="evenodd" class="s39" d="m193.74 478.37c-3.06 0-5.53-2.47-5.53-5.53 0-3.07 2.47-5.54 5.53-5.54 3.06 0 5.54 2.47 5.54 5.54 0 3.06-2.48 5.53-5.54 5.53z"/>
		<path fill-rule="evenodd" class="s40" d="m41.91 164.46c-2.74 0-4.96-2.22-4.96-4.96 0-2.75 2.22-4.97 4.96-4.97 2.75 0 4.96 2.22 4.96 4.97 0 2.74-2.21 4.96-4.96 4.96z"/>
		<path fill-rule="evenodd" class="s41" d="m196.29 769.79c-4.75 0-8.59-3.84-8.59-8.59 0-4.75 3.84-8.59 8.59-8.59 4.75 0 8.59 3.84 8.59 8.59 0 4.75-3.84 8.59-8.59 8.59z"/>
		<path fill-rule="evenodd" class="s13" d="m407.2 726.11c-3.07 0-5.54-2.47-5.54-5.54 0-3.06 2.47-5.54 5.54-5.54 3.06 0 5.54 2.48 5.54 5.54 0 3.07-2.48 5.54-5.54 5.54z"/>
		<path fill-rule="evenodd" class="s42" d="m533.56 453.3c-2.83 0-5.12-2.28-5.12-5.11 0-2.83 2.29-5.12 5.12-5.12 2.83 0 5.11 2.29 5.11 5.12 0 2.83-2.28 5.11-5.11 5.11z"/>
		<path fill-rule="evenodd" class="s2" d="m677.22 78.47c-3.8 0-6.87-3.07-6.87-6.87 0-3.8 3.07-6.88 6.87-6.88 3.81 0 6.88 3.08 6.88 6.88 0 3.8-3.07 6.87-6.88 6.87z"/>
		<path fill-rule="evenodd" class="s43" d="m347.26 311.01c-3.72 0-6.73-3.01-6.73-6.74 0-3.72 3.01-6.73 6.73-6.73 3.72 0 6.74 3.01 6.74 6.73 0 3.73-3.02 6.74-6.74 6.74z"/>
		<path fill-rule="evenodd" class="s29" d="m373.22 559.84c-3.39 0-6.12-2.73-6.12-6.12 0-3.38 2.73-6.11 6.12-6.11 3.38 0 6.12 2.73 6.12 6.11 0 3.39-2.74 6.12-6.12 6.12z"/>
		<path fill-rule="evenodd" class="s44" d="m165.59 404.13c-1.99 0-3.6-1.62-3.6-3.61 0-2 1.61-3.61 3.6-3.61 2 0 3.61 1.61 3.61 3.61 0 1.99-1.61 3.61-3.61 3.61z"/>
		<path fill-rule="evenodd" class="s19" d="m587.53 198.11c-2.83 0-5.12-2.29-5.12-5.12 0-2.83 2.29-5.12 5.12-5.12 2.83 0 5.12 2.29 5.12 5.12 0 2.83-2.29 5.12-5.12 5.12z"/>
		<path fill-rule="evenodd" class="s45" d="m329.93 162.65c-3.15 0-5.7-2.55-5.7-5.7 0-3.16 2.55-5.71 5.7-5.71 3.15 0 5.7 2.55 5.7 5.71 0 3.15-2.55 5.7-5.7 5.7z"/>
		<path fill-rule="evenodd" class="s46" d="m12.78 74.54c-2.49 0-4.51-2.02-4.51-4.51 0-2.49 2.02-4.51 4.51-4.51 2.49 0 4.5 2.02 4.5 4.51 0 2.49-2.01 4.51-4.5 4.51z"/>
		<path fill-rule="evenodd" class="s35" d="m40.8 66.64c-3.02 0-5.47-2.45-5.47-5.47 0-3.03 2.45-5.47 5.47-5.47 3.02 0 5.47 2.44 5.47 5.47 0 3.02-2.45 5.47-5.47 5.47z"/>
		<path fill-rule="evenodd" class="s47" d="m439.54 340.85c-2.53 0-4.58-2.05-4.58-4.58 0-2.53 2.05-4.58 4.58-4.58 2.54 0 4.59 2.05 4.59 4.58 0 2.53-2.05 4.58-4.59 4.58z"/>
		<path fill-rule="evenodd" class="s48" d="m56.53 476.17c-2.59 0-4.69-2.1-4.69-4.7 0-2.59 2.1-4.69 4.69-4.69 2.6 0 4.7 2.1 4.7 4.69 0 2.6-2.1 4.7-4.7 4.7z"/>
		<path fill-rule="evenodd" class="s37" d="m321.53 393.57c-2.99 0-5.41-2.42-5.41-5.41 0-2.99 2.42-5.41 5.41-5.41 2.99 0 5.41 2.42 5.41 5.41 0 2.99-2.42 5.41-5.41 5.41z"/>
		<path fill-rule="evenodd" class="s43" d="m38.33 23.48c-3.25 0-5.88-2.62-5.88-5.87 0-3.25 2.63-5.88 5.88-5.88 3.24 0 5.87 2.63 5.87 5.88 0 3.25-2.63 5.87-5.87 5.87z"/>
		<path fill-rule="evenodd" class="s49" d="m778.85 785.1c-5.6 0-10.13-4.52-10.13-10.12 0-5.6 4.53-10.12 10.13-10.12 5.6 0 10.12 4.52 10.12 10.12 0 5.6-4.52 10.12-10.12 10.12z"/>
		<path fill-rule="evenodd" class="s12" d="m615.55 309.12c-3.09 0-5.59-2.5-5.59-5.59 0-3.09 2.5-5.59 5.59-5.59 3.09 0 5.59 2.5 5.59 5.59 0 3.09-2.5 5.59-5.59 5.59z"/>
		<path fill-rule="evenodd" class="s12" d="m686.34 423.15c-2.38 0-4.3-1.93-4.3-4.3 0-2.38 1.92-4.3 4.3-4.3 2.37 0 4.29 1.92 4.29 4.3 0 2.37-1.92 4.3-4.29 4.3z"/>
		<path fill-rule="evenodd" class="s43" d="m218.46 449.76c-3.59 0-6.49-2.9-6.49-6.49 0-3.59 2.9-6.49 6.49-6.49 3.59 0 6.49 2.9 6.49 6.49 0 3.59-2.9 6.49-6.49 6.49z"/>
		<path fill-rule="evenodd" class="s50" d="m523.34 327.12c-2.25 0-4.07-1.82-4.07-4.07 0-2.25 1.82-4.06 4.07-4.06 2.24 0 4.06 1.81 4.06 4.06 0 2.25-1.82 4.07-4.06 4.07z"/>
		<path fill-rule="evenodd" class="s46" d="m470.95 286.63c-4.68 0-8.47-3.78-8.47-8.47 0-4.69 3.79-8.48 8.47-8.48 4.69 0 8.48 3.79 8.48 8.48 0 4.69-3.79 8.47-8.48 8.47z"/>
		<path fill-rule="evenodd" class="s51" d="m140.08 58.97c-3.91 0-7.06-3.15-7.06-7.06 0-3.9 3.15-7.06 7.06-7.06 3.9 0 7.06 3.16 7.06 7.06 0 3.91-3.16 7.06-7.06 7.06z"/>
		<path fill-rule="evenodd" class="s12" d="m283.52 545.35c-5.57 0-10.08-4.51-10.08-10.08 0-5.57 4.51-10.07 10.08-10.07 5.57 0 10.07 4.5 10.07 10.07 0 5.57-4.5 10.08-10.07 10.08z"/>
		<path fill-rule="evenodd" class="s31" d="m681.04 793.92c-2.94 0-5.31-2.37-5.31-5.31 0-2.94 2.37-5.32 5.31-5.32 2.94 0 5.32 2.38 5.32 5.32 0 2.94-2.38 5.31-5.32 5.31z"/>
		<path fill-rule="evenodd" class="s52" d="m700.19 455.74c-3.91 0-7.07-3.16-7.07-7.07 0-3.91 3.16-7.07 7.07-7.07 3.91 0 7.07 3.16 7.07 7.07 0 3.91-3.16 7.07-7.07 7.07z"/>
		<path fill-rule="evenodd" class="s43" d="m420.64 303.66c-2.44 0-4.42-1.98-4.42-4.43 0-2.45 1.98-4.42 4.42-4.42 2.45 0 4.43 1.97 4.43 4.42 0 2.45-1.98 4.43-4.43 4.43z"/>
		<path fill-rule="evenodd" class="s53" d="m237.9 128.65c-3.76 0-6.8-3.04-6.8-6.79 0-3.76 3.04-6.8 6.8-6.8 3.76 0 6.79 3.04 6.79 6.8 0 3.75-3.03 6.79-6.79 6.79z"/>
		<path fill-rule="evenodd" class="s41" d="m479.4 349c-2.29 0-4.14-1.85-4.14-4.14 0-2.29 1.85-4.14 4.14-4.14 2.29 0 4.13 1.85 4.13 4.14 0 2.29-1.84 4.14-4.13 4.14z"/>
		<path fill-rule="evenodd" class="s16" d="m614.39 379.48c-3.89 0-7.04-3.15-7.04-7.04 0-3.9 3.15-7.04 7.04-7.04 3.89 0 7.04 3.14 7.04 7.04 0 3.89-3.15 7.04-7.04 7.04z"/>
		<path fill-rule="evenodd" class="s54" d="m38.14 606.84c-2.53 0-4.58-2.05-4.58-4.59 0-2.53 2.05-4.58 4.58-4.58 2.54 0 4.59 2.05 4.59 4.58 0 2.54-2.05 4.59-4.59 4.59z"/>
		<path fill-rule="evenodd" class="s55" d="m666.46 661.87c-3.97 0-7.18-3.21-7.18-7.18 0-3.97 3.21-7.17 7.18-7.17 3.96 0 7.17 3.2 7.17 7.17 0 3.97-3.21 7.18-7.17 7.18z"/>
		<path fill-rule="evenodd" class="s16" d="m654.86 780.73c-1.98 0-3.57-1.59-3.57-3.57 0-1.97 1.59-3.57 3.57-3.57 1.97 0 3.57 1.6 3.57 3.57 0 1.98-1.6 3.57-3.57 3.57z"/>
		<path fill-rule="evenodd" class="s56" d="m526.4 63.62c-3.21 0-5.79-2.59-5.79-5.79 0-3.21 2.58-5.8 5.79-5.8 3.2 0 5.79 2.59 5.79 5.8 0 3.2-2.59 5.79-5.79 5.79z"/>
		<path fill-rule="evenodd" class="s1" d="m71.08 251.05c-3.39 0-6.13-2.74-6.13-6.12 0-3.39 2.74-6.13 6.13-6.13 3.38 0 6.12 2.74 6.12 6.13 0 3.38-2.74 6.12-6.12 6.12z"/>
		<path fill-rule="evenodd" class="s2" d="m531.55 541.09c-3.21 0-5.8-2.59-5.8-5.79 0-3.21 2.59-5.8 5.8-5.8 3.2 0 5.79 2.59 5.79 5.8 0 3.2-2.59 5.79-5.79 5.79z"/>
		<path fill-rule="evenodd" class="s57" d="m425.07 783.89c-4.3 0-7.77-3.47-7.77-7.77 0-4.29 3.47-7.76 7.77-7.76 4.29 0 7.76 3.47 7.76 7.76 0 4.3-3.47 7.77-7.76 7.77z"/>
		<path fill-rule="evenodd" class="s58" d="m150.73 27.08c-4.85 0-8.77-3.92-8.77-8.76 0-4.85 3.92-8.77 8.77-8.77 4.84 0 8.76 3.92 8.76 8.77 0 4.84-3.92 8.76-8.76 8.76z"/>
		<path fill-rule="evenodd" class="s59" d="m46.61 775.5c-2.74 0-4.96-2.21-4.96-4.96 0-2.74 2.22-4.95 4.96-4.95 2.74 0 4.96 2.21 4.96 4.95 0 2.75-2.22 4.96-4.96 4.96z"/>
		<path fill-rule="evenodd" class="s52" d="m33.81 735.31c-1.94 0-3.51-1.57-3.51-3.51 0-1.94 1.57-3.51 3.51-3.51 1.94 0 3.5 1.57 3.5 3.51 0 1.94-1.56 3.51-3.5 3.51z"/>
		<path fill-rule="evenodd" class="s9" d="m15.46 148.94c-3.66 0-6.62-2.96-6.62-6.62 0-3.66 2.96-6.62 6.62-6.62 3.66 0 6.62 2.96 6.62 6.62 0 3.66-2.96 6.62-6.62 6.62z"/>
		<path fill-rule="evenodd" class="s60" d="m598.99 461.17c-3.48 0-6.29-2.81-6.29-6.29 0-3.48 2.81-6.29 6.29-6.29 3.48 0 6.29 2.81 6.29 6.29 0 3.48-2.81 6.29-6.29 6.29z"/>
		<path fill-rule="evenodd" class="s4" d="m214.4 304.48c-5.01 0-9.06-4.05-9.06-9.06 0-5.01 4.05-9.07 9.06-9.07 5.02 0 9.07 4.06 9.07 9.07 0 5.01-4.05 9.06-9.07 9.06z"/>
		<path fill-rule="evenodd" class="s6" d="m563.84 469.17c-3.79 0-6.84-3.06-6.84-6.84 0-3.78 3.05-6.84 6.84-6.84 3.78 0 6.84 3.06 6.84 6.84 0 3.78-3.06 6.84-6.84 6.84z"/>
		<path fill-rule="evenodd" class="s43" d="m698.56 481.23c-2.13 0-3.85-1.72-3.85-3.86 0-2.13 1.72-3.85 3.85-3.85 2.13 0 3.86 1.72 3.86 3.85 0 2.14-1.73 3.86-3.86 3.86z"/>
		<path fill-rule="evenodd" class="s61" d="m341.76 135.39c-2.9 0-5.25-2.35-5.25-5.26 0-2.9 2.35-5.25 5.25-5.25 2.9 0 5.25 2.35 5.25 5.25 0 2.91-2.35 5.26-5.25 5.26z"/>
		<path fill-rule="evenodd" class="s62" d="m575.71 399.31c-2.59 0-4.68-2.09-4.68-4.69 0-2.59 2.09-4.68 4.68-4.68 2.59 0 4.69 2.09 4.69 4.68 0 2.6-2.1 4.69-4.69 4.69z"/>
		<path fill-rule="evenodd" class="s26" d="m424.96 51.54c-2.77 0-5.01-2.24-5.01-5.01 0-2.78 2.24-5.02 5.01-5.02 2.77 0 5.01 2.24 5.01 5.02 0 2.77-2.24 5.01-5.01 5.01z"/>
		<path fill-rule="evenodd" class="s17" d="m99.85 175.33c-2.56 0-4.63-2.07-4.63-4.63 0-2.55 2.07-4.62 4.63-4.62 2.55 0 4.62 2.07 4.62 4.62 0 2.56-2.07 4.63-4.62 4.63z"/>
		<path fill-rule="evenodd" class="s63" d="m783.48 626.95c-3.2 0-5.78-2.59-5.78-5.79 0-3.2 2.58-5.78 5.78-5.78 3.2 0 5.79 2.58 5.79 5.78 0 3.2-2.59 5.79-5.79 5.79z"/>
		<path fill-rule="evenodd" class="s21" d="m283.21 766.55c-2.74 0-4.95-2.21-4.95-4.95 0-2.73 2.21-4.95 4.95-4.95 2.73 0 4.94 2.22 4.94 4.95 0 2.74-2.21 4.95-4.94 4.95z"/>
		<path fill-rule="evenodd" class="s3" d="m777.54 311.96c-2.94 0-5.31-2.37-5.31-5.31 0-2.94 2.37-5.31 5.31-5.31 2.93 0 5.31 2.37 5.31 5.31 0 2.94-2.38 5.31-5.31 5.31z"/>
		<path fill-rule="evenodd" class="s38" d="m398.88 260.43c-2.39 0-4.33-1.94-4.33-4.33 0-2.39 1.94-4.32 4.33-4.32 2.39 0 4.32 1.93 4.32 4.32 0 2.39-1.93 4.33-4.32 4.33z"/>
		<path fill-rule="evenodd" class="s12" d="m491.67 315.43c-3.03 0-5.49-2.46-5.49-5.49 0-3.04 2.46-5.49 5.49-5.49 3.04 0 5.49 2.45 5.49 5.49 0 3.03-2.45 5.49-5.49 5.49z"/>
		<path fill-rule="evenodd" class="s35" d="m229.74 490.38c-2.95 0-5.33-2.39-5.33-5.33 0-2.95 2.38-5.33 5.33-5.33 2.95 0 5.33 2.38 5.33 5.33 0 2.94-2.38 5.33-5.33 5.33z"/>
		<path fill-rule="evenodd" class="s42" d="m381.94 15.99c-2.91 0-5.27-2.36-5.27-5.27 0-2.92 2.36-5.27 5.27-5.27 2.92 0 5.27 2.35 5.27 5.27 0 2.91-2.35 5.27-5.27 5.27z"/>
		<path fill-rule="evenodd" class="s45" d="m627.41 152.51c-4.19 0-7.57-3.39-7.57-7.58 0-4.18 3.38-7.57 7.57-7.57 4.19 0 7.57 3.39 7.57 7.57 0 4.19-3.38 7.58-7.57 7.58z"/>
		<path fill-rule="evenodd" class="s59" d="m316.08 619.64c-3.6 0-6.51-2.91-6.51-6.51 0-3.6 2.91-6.51 6.51-6.51 3.6 0 6.51 2.91 6.51 6.51 0 3.6-2.91 6.51-6.51 6.51z"/>
		<path fill-rule="evenodd" class="s4" d="m15.03 185.13c-3.44 0-6.23-2.78-6.23-6.23 0-3.44 2.79-6.23 6.23-6.23 3.45 0 6.23 2.79 6.23 6.23 0 3.45-2.78 6.23-6.23 6.23z"/>
		<path fill-rule="evenodd" class="s7" d="m242.41 354.54c-3.01 0-5.45-2.43-5.45-5.44 0-3.01 2.44-5.45 5.45-5.45 3.01 0 5.45 2.44 5.45 5.45 0 3.01-2.44 5.44-5.45 5.44z"/>
		<path fill-rule="evenodd" class="s64" d="m199.85 246.71c-3.31 0-5.99-2.67-5.99-5.99 0-3.31 2.68-5.99 5.99-5.99 3.31 0 5.99 2.68 5.99 5.99 0 3.32-2.68 5.99-5.99 5.99z"/>
		<path fill-rule="evenodd" class="s63" d="m546.39 281.08c-3.66 0-6.62-2.96-6.62-6.63 0-3.66 2.96-6.62 6.62-6.62 3.67 0 6.63 2.96 6.63 6.62 0 3.67-2.96 6.63-6.63 6.63z"/>
		<path fill-rule="evenodd" class="s64" d="m12.43 100.57c-2.13 0-3.85-1.72-3.85-3.85 0-2.13 1.72-3.85 3.85-3.85 2.13 0 3.85 1.72 3.85 3.85 0 2.13-1.72 3.85-3.85 3.85z"/>
		<path fill-rule="evenodd" class="s65" d="m338.86 334.59c-2.7 0-4.88-2.19-4.88-4.89 0-2.7 2.18-4.88 4.88-4.88 2.7 0 4.89 2.18 4.89 4.88 0 2.7-2.19 4.89-4.89 4.89z"/>
		<path fill-rule="evenodd" class="s59" d="m176.19 547.36c-4.99 0-9.03-4.04-9.03-9.04 0-4.99 4.04-9.03 9.03-9.03 5 0 9.04 4.04 9.04 9.03 0 5-4.04 9.04-9.04 9.04z"/>
		<path fill-rule="evenodd" class="s54" d="m503.11 484.92c-3 0-5.42-2.42-5.42-5.42 0-3.01 2.42-5.43 5.42-5.43 3.01 0 5.43 2.42 5.43 5.43 0 3-2.42 5.42-5.43 5.42z"/>
		<path fill-rule="evenodd" class="s36" d="m68.98 681.29c-3.2 0-5.79-2.59-5.79-5.79 0-3.21 2.59-5.8 5.79-5.8 3.2 0 5.79 2.59 5.79 5.8 0 3.2-2.59 5.79-5.79 5.79z"/>
		<path fill-rule="evenodd" class="s8" d="m82.06 82.94c-2.52 0-4.55-2.04-4.55-4.56 0-2.52 2.03-4.55 4.55-4.55 2.53 0 4.56 2.03 4.56 4.55 0 2.52-2.03 4.56-4.56 4.56z"/>
		<path fill-rule="evenodd" class="s66" d="m74.7 345.6c-3.46 0-6.27-2.8-6.27-6.27 0-3.46 2.81-6.26 6.27-6.26 3.47 0 6.27 2.8 6.27 6.26 0 3.47-2.8 6.27-6.27 6.27z"/>
		<path fill-rule="evenodd" class="s62" d="m517.96 163c-2.74 0-4.96-2.22-4.96-4.96 0-2.74 2.22-4.96 4.96-4.96 2.75 0 4.96 2.22 4.96 4.96 0 2.74-2.21 4.96-4.96 4.96z"/>
		<path fill-rule="evenodd" class="s67" d="m307.9 575.85c-3.74 0-6.77-3.03-6.77-6.77 0-3.74 3.03-6.77 6.77-6.77 3.74 0 6.77 3.03 6.77 6.77 0 3.74-3.03 6.77-6.77 6.77z"/>
		<path fill-rule="evenodd" class="s68" d="m10.49 633.49c-3.26 0-5.9-2.64-5.9-5.9 0-3.26 2.64-5.9 5.9-5.9 3.26 0 5.9 2.64 5.9 5.9 0 3.26-2.64 5.9-5.9 5.9z"/>
		<path fill-rule="evenodd" class="s18" d="m158.04 782.48c-3.28 0-5.93-2.64-5.93-5.92 0-3.28 2.65-5.93 5.93-5.93 3.27 0 5.92 2.65 5.92 5.93 0 3.28-2.65 5.92-5.92 5.92z"/>
		<path fill-rule="evenodd" class="s55" d="m258.84 583.63c-5.03 0-9.1-4.07-9.1-9.1 0-5.03 4.07-9.1 9.1-9.1 5.03 0 9.1 4.07 9.1 9.1 0 5.03-4.07 9.1-9.1 9.1z"/>
		<path fill-rule="evenodd" class="s30" d="m333.63 734.54c-2.97 0-5.36-2.4-5.36-5.36 0-2.97 2.39-5.37 5.36-5.37 2.96 0 5.36 2.4 5.36 5.37 0 2.96-2.4 5.36-5.36 5.36z"/>
		<path fill-rule="evenodd" class="s1" d="m585.54 782.55c-3.04 0-5.5-2.46-5.5-5.5 0-3.04 2.46-5.5 5.5-5.5 3.05 0 5.51 2.46 5.51 5.5 0 3.04-2.46 5.5-5.51 5.5z"/>
		<path fill-rule="evenodd" class="s69" d="m613.52 555.56c-2.42 0-4.37-1.95-4.37-4.37 0-2.42 1.95-4.37 4.37-4.37 2.42 0 4.37 1.95 4.37 4.37 0 2.42-1.95 4.37-4.37 4.37z"/>
		<path fill-rule="evenodd" class="s70" d="m601.71 338.68c-2.34 0-4.23-1.89-4.23-4.23 0-2.33 1.89-4.22 4.23-4.22 2.33 0 4.22 1.89 4.22 4.22 0 2.34-1.89 4.23-4.22 4.23z"/>
		<path fill-rule="evenodd" class="s64" d="m563.69 301.44c-1.73 0-3.13-1.4-3.13-3.13 0-1.73 1.4-3.13 3.13-3.13 1.74 0 3.14 1.4 3.14 3.13 0 1.73-1.4 3.13-3.14 3.13z"/>
		<path fill-rule="evenodd" class="s38" d="m594.69 137.28c-5.01 0-9.06-4.04-9.06-9.05 0-5.01 4.05-9.06 9.06-9.06 5.01 0 9.05 4.05 9.05 9.06 0 5.01-4.04 9.05-9.05 9.05z"/>
		<path fill-rule="evenodd" class="s71" d="m304.67 130.38c-3.34 0-6.03-2.69-6.03-6.03 0-3.33 2.69-6.02 6.03-6.02 3.33 0 6.02 2.69 6.02 6.02 0 3.34-2.69 6.03-6.02 6.03z"/>
		<path fill-rule="evenodd" class="s59" d="m100.1 665c-3.49 0-6.31-2.83-6.31-6.32 0-3.5 2.82-6.32 6.31-6.32 3.5 0 6.32 2.82 6.32 6.32 0 3.49-2.82 6.32-6.32 6.32z"/>
		<path fill-rule="evenodd" class="s72" d="m84.47 751.28c-2.59 0-4.69-2.1-4.69-4.7 0-2.6 2.1-4.7 4.69-4.7 2.6 0 4.7 2.1 4.7 4.7 0 2.6-2.1 4.7-4.7 4.7z"/>
		<path fill-rule="evenodd" class="s3" d="m95.19 370.16c-3.49 0-6.31-2.82-6.31-6.32 0-3.49 2.82-6.31 6.31-6.31 3.49 0 6.32 2.82 6.32 6.31 0 3.5-2.83 6.32-6.32 6.32z"/>
		<path fill-rule="evenodd" class="s63" d="m372.17 76.05c-2.87 0-5.19-2.32-5.19-5.18 0-2.87 2.32-5.19 5.19-5.19 2.86 0 5.18 2.32 5.18 5.19 0 2.86-2.32 5.18-5.18 5.18z"/>
		<path fill-rule="evenodd" class="s4" d="m75.68 285.92c-2.38 0-4.3-1.92-4.3-4.3 0-2.38 1.92-4.3 4.3-4.3 2.38 0 4.3 1.92 4.3 4.3 0 2.38-1.92 4.3-4.3 4.3z"/>
		<path fill-rule="evenodd" class="s29" d="m715.77 175.84c-3.16 0-5.71-2.55-5.71-5.71 0-3.16 2.55-5.71 5.71-5.71 3.16 0 5.72 2.55 5.72 5.71 0 3.16-2.56 5.71-5.72 5.71z"/>
		<path fill-rule="evenodd" class="s71" d="m599.76 528.32c-2.99 0-5.42-2.42-5.42-5.42 0-3 2.43-5.42 5.42-5.42 3 0 5.42 2.42 5.42 5.42 0 3-2.42 5.42-5.42 5.42z"/>
		<path fill-rule="evenodd" class="s73" d="m634.9 333.91c-4.27 0-7.71-3.45-7.71-7.71 0-4.27 3.44-7.71 7.71-7.71 4.26 0 7.71 3.44 7.71 7.71 0 4.26-3.45 7.71-7.71 7.71z"/>
		<path fill-rule="evenodd" class="s68" d="m201.75 697.71c-4.45 0-8.05-3.6-8.05-8.06 0-4.45 3.6-8.05 8.05-8.05 4.46 0 8.06 3.6 8.06 8.05 0 4.46-3.6 8.06-8.06 8.06z"/>
		<path fill-rule="evenodd" class="s72" d="m311.43 293.07c-3.15 0-5.69-2.54-5.69-5.69 0-3.15 2.54-5.7 5.69-5.7 3.15 0 5.7 2.55 5.7 5.7 0 3.15-2.55 5.69-5.7 5.69z"/>
		<path fill-rule="evenodd" class="s74" d="m252.82 324.77c-3.38 0-6.12-2.74-6.12-6.12 0-3.38 2.74-6.12 6.12-6.12 3.38 0 6.12 2.74 6.12 6.12 0 3.38-2.74 6.12-6.12 6.12z"/>
		<path fill-rule="evenodd" class="s75" d="m71.91 630.77c-3.14 0-5.69-2.54-5.69-5.69 0-3.15 2.55-5.69 5.69-5.69 3.15 0 5.7 2.54 5.7 5.69 0 3.15-2.55 5.69-5.7 5.69z"/>
		<path fill-rule="evenodd" class="s23" d="m598.92 228.11c-3.1 0-5.6-2.5-5.6-5.59 0-3.09 2.5-5.59 5.6-5.59 3.09 0 5.59 2.5 5.59 5.59 0 3.09-2.5 5.59-5.59 5.59z"/>
		<path fill-rule="evenodd" class="s76" d="m704.15 349.39c-3.17 0-5.74-2.56-5.74-5.74 0-3.17 2.57-5.74 5.74-5.74 3.17 0 5.74 2.57 5.74 5.74 0 3.18-2.57 5.74-5.74 5.74z"/>
		<path fill-rule="evenodd" class="s77" d="m459.35 233.7c-2.53 0-4.56-2.04-4.56-4.56 0-2.52 2.03-4.56 4.56-4.56 2.52 0 4.56 2.04 4.56 4.56 0 2.52-2.04 4.56-4.56 4.56z"/>
		<path fill-rule="evenodd" class="s72" d="m523.01 394.42c-4.31 0-7.8-3.48-7.8-7.79 0-4.31 3.49-7.8 7.8-7.8 4.31 0 7.8 3.49 7.8 7.8 0 4.31-3.49 7.79-7.8 7.79z"/>
		<path fill-rule="evenodd" class="s75" d="m715.24 758.36c-3.14 0-5.67-2.53-5.67-5.66 0-3.13 2.53-5.66 5.67-5.66 3.13 0 5.66 2.53 5.66 5.66 0 3.13-2.53 5.66-5.66 5.66z"/>
		<path fill-rule="evenodd" class="s33" d="m326.31 209.62c-2.45 0-4.44-1.99-4.44-4.44 0-2.46 1.99-4.45 4.44-4.45 2.46 0 4.44 1.99 4.44 4.45 0 2.45-1.98 4.44-4.44 4.44z"/>
		<path fill-rule="evenodd" class="s62" d="m402.16 636.94c-3.92 0-7.1-3.17-7.1-7.1 0-3.92 3.18-7.1 7.1-7.1 3.93 0 7.1 3.18 7.1 7.1 0 3.93-3.17 7.1-7.1 7.1z"/>
		<path fill-rule="evenodd" class="s57" d="m419.78 494.02c-4.56 0-8.25-3.69-8.25-8.26 0-4.56 3.69-8.25 8.25-8.25 4.57 0 8.26 3.69 8.26 8.25 0 4.57-3.69 8.26-8.26 8.26z"/>
		<path fill-rule="evenodd" class="s60" d="m18.29 542.03c-3.18 0-5.76-2.58-5.76-5.77 0-3.18 2.58-5.76 5.76-5.76 3.19 0 5.77 2.58 5.77 5.76 0 3.19-2.58 5.77-5.77 5.77z"/>
		<path fill-rule="evenodd" class="s56" d="m114.19 613.47c-3.08 0-5.57-2.49-5.57-5.57 0-3.08 2.49-5.57 5.57-5.57 3.08 0 5.57 2.49 5.57 5.57 0 3.08-2.49 5.57-5.57 5.57z"/>
		<path fill-rule="evenodd" class="s17" d="m674.73 518.69c-4.69 0-8.48-3.79-8.48-8.48 0-4.69 3.79-8.48 8.48-8.48 4.69 0 8.48 3.79 8.48 8.48 0 4.69-3.79 8.48-8.48 8.48z"/>
		<path fill-rule="evenodd" class="s54" d="m337.56 99.49c-5.4 0-9.77-4.36-9.77-9.76 0-5.4 4.37-9.77 9.77-9.77 5.4 0 9.77 4.37 9.77 9.77 0 5.4-4.37 9.76-9.77 9.76z"/>
		<path fill-rule="evenodd" class="s68" d="m337.28 791.11c-2.35 0-4.25-1.89-4.25-4.24 0-2.34 1.9-4.24 4.25-4.24 2.34 0 4.24 1.9 4.24 4.24 0 2.35-1.9 4.24-4.24 4.24z"/>
		<path fill-rule="evenodd" class="s62" d="m565.34 171.89c-3.34 0-6.04-2.7-6.04-6.04 0-3.34 2.7-6.04 6.04-6.04 3.34 0 6.04 2.7 6.04 6.04 0 3.34-2.7 6.04-6.04 6.04z"/>
		<path fill-rule="evenodd" class="s78" d="m530.53 647.13c-4.5 0-8.14-3.64-8.14-8.14 0-4.5 3.64-8.14 8.14-8.14 4.5 0 8.14 3.64 8.14 8.14 0 4.5-3.64 8.14-8.14 8.14z"/>
		<path fill-rule="evenodd" class="s79" d="m304.86 18.42c-2.41 0-4.36-1.95-4.36-4.37 0-2.41 1.95-4.36 4.36-4.36 2.42 0 4.37 1.95 4.37 4.36 0 2.42-1.95 4.37-4.37 4.37z"/>
		<path fill-rule="evenodd" class="s80" d="m583.17 584.86c-4.15 0-7.49-3.35-7.49-7.49 0-4.14 3.34-7.49 7.49-7.49 4.14 0 7.48 3.35 7.48 7.49 0 4.14-3.34 7.49-7.48 7.49z"/>
		<path fill-rule="evenodd" class="s49" d="m185.53 391.35c-3.11 0-5.63-2.51-5.63-5.62 0-3.12 2.52-5.63 5.63-5.63 3.12 0 5.63 2.51 5.63 5.63 0 3.11-2.51 5.62-5.63 5.62z"/>
		<path fill-rule="evenodd" class="s59" d="m541.58 593.28c-4.25 0-7.67-3.43-7.67-7.67 0-4.24 3.42-7.67 7.67-7.67 4.24 0 7.67 3.43 7.67 7.67 0 4.24-3.43 7.67-7.67 7.67z"/>
		<path fill-rule="evenodd" class="s72" d="m236.89 675.89c-2.78 0-5.03-2.25-5.03-5.04 0-2.78 2.25-5.03 5.03-5.03 2.79 0 5.04 2.25 5.04 5.03 0 2.79-2.25 5.04-5.04 5.04z"/>
		<path fill-rule="evenodd" class="s12" d="m285.84 46.46c-4.27 0-7.72-3.46-7.72-7.73 0-4.27 3.45-7.72 7.72-7.72 4.28 0 7.73 3.45 7.73 7.72 0 4.27-3.45 7.73-7.73 7.73z"/>
		<path fill-rule="evenodd" class="s43" d="m702.05 274.82c-3.44 0-6.23-2.79-6.23-6.24 0-3.45 2.79-6.24 6.23-6.24 3.45 0 6.24 2.79 6.24 6.24 0 3.45-2.79 6.24-6.24 6.24z"/>
		<path fill-rule="evenodd" class="s15" d="m478.32 380.57c-3.59 0-6.49-2.91-6.49-6.5 0-3.59 2.9-6.5 6.49-6.5 3.6 0 6.5 2.91 6.5 6.5 0 3.59-2.9 6.5-6.5 6.5z"/>
		<path fill-rule="evenodd" class="s81" d="m12.17 724.24c-3.76 0-6.81-3.04-6.81-6.81 0-3.76 3.05-6.8 6.81-6.8 3.77 0 6.81 3.04 6.81 6.8 0 3.77-3.04 6.81-6.81 6.81z"/>
		<path fill-rule="evenodd" class="s37" d="m625.99 785.25c-3.01 0-5.45-2.43-5.45-5.45 0-3.02 2.44-5.46 5.45-5.46 3.02 0 5.46 2.44 5.46 5.46 0 3.02-2.44 5.45-5.46 5.45z"/>
		<path fill-rule="evenodd" class="s82" d="m564.16 334.92c-2.67 0-4.83-2.16-4.83-4.82 0-2.67 2.16-4.83 4.83-4.83 2.67 0 4.83 2.16 4.83 4.83 0 2.66-2.16 4.82-4.83 4.82z"/>
		<path fill-rule="evenodd" class="s75" d="m649.77 187.97c-2.79 0-5.05-2.27-5.05-5.06 0-2.8 2.26-5.06 5.05-5.06 2.8 0 5.06 2.26 5.06 5.06 0 2.79-2.26 5.06-5.06 5.06z"/>
		<path fill-rule="evenodd" class="s76" d="m486.53 247.28c-3.64 0-6.59-2.94-6.59-6.58 0-3.65 2.95-6.59 6.59-6.59 3.64 0 6.58 2.94 6.58 6.59 0 3.64-2.94 6.58-6.58 6.58z"/>
		<path fill-rule="evenodd" class="s24" d="m499.33 620.32c-2.87 0-5.19-2.32-5.19-5.19 0-2.87 2.32-5.19 5.19-5.19 2.88 0 5.2 2.32 5.2 5.19 0 2.87-2.32 5.19-5.2 5.19z"/>
		<path fill-rule="evenodd" class="s62" d="m108.52 522.63c-2.34 0-4.22-1.88-4.22-4.22 0-2.33 1.88-4.22 4.22-4.22 2.33 0 4.22 1.89 4.22 4.22 0 2.34-1.89 4.22-4.22 4.22z"/>
		<path fill-rule="evenodd" class="s61" d="m524.93 125.91c-4.02 0-7.26-3.25-7.26-7.27 0-4.01 3.24-7.26 7.26-7.26 4.01 0 7.26 3.25 7.26 7.26 0 4.02-3.25 7.27-7.26 7.27z"/>
		<path fill-rule="evenodd" class="s83" d="m75.74 148.18c-2.38 0-4.31-1.92-4.31-4.31 0-2.38 1.93-4.31 4.31-4.31 2.38 0 4.31 1.93 4.31 4.31 0 2.39-1.93 4.31-4.31 4.31z"/>
		<path fill-rule="evenodd" class="s6" d="m208.25 402.37c-2.89 0-5.22-2.34-5.22-5.22 0-2.89 2.33-5.22 5.22-5.22 2.88 0 5.22 2.33 5.22 5.22 0 2.88-2.34 5.22-5.22 5.22z"/>
		<path fill-rule="evenodd" class="s33" d="m109.98 46.66c-2.42 0-4.37-1.96-4.37-4.37 0-2.41 1.95-4.37 4.37-4.37 2.41 0 4.36 1.96 4.36 4.37 0 2.41-1.95 4.37-4.36 4.37z"/>
		<path fill-rule="evenodd" class="s45" d="m712.17 512.44c-3.35 0-6.06-2.71-6.06-6.06 0-3.35 2.71-6.06 6.06-6.06 3.36 0 6.07 2.71 6.07 6.06 0 3.35-2.71 6.06-6.07 6.06z"/>
		<path fill-rule="evenodd" class="s84" d="m218.32 656.9c-2.87 0-5.19-2.32-5.19-5.18 0-2.86 2.32-5.18 5.19-5.18 2.86 0 5.18 2.32 5.18 5.18 0 2.86-2.32 5.18-5.18 5.18z"/>
		<path fill-rule="evenodd" class="s38" d="m407.21 597.83c-3.62 0-6.54-2.93-6.54-6.54 0-3.62 2.92-6.54 6.54-6.54 3.61 0 6.53 2.92 6.53 6.54 0 3.61-2.92 6.54-6.53 6.54z"/>
		<path fill-rule="evenodd" class="s35" d="m623.31 52.2c-3.14 0-5.68-2.54-5.68-5.68 0-3.15 2.54-5.69 5.68-5.69 3.14 0 5.69 2.54 5.69 5.69 0 3.14-2.55 5.68-5.69 5.68z"/>
		<path fill-rule="evenodd" class="s50" d="m142.08 514.57c-4.11 0-7.43-3.32-7.43-7.42 0-4.11 3.32-7.43 7.43-7.43 4.1 0 7.42 3.32 7.42 7.43 0 4.1-3.32 7.42-7.42 7.42z"/>
		<path fill-rule="evenodd" class="s40" d="m14.97 447.36c-2.6 0-4.69-2.1-4.69-4.7 0-2.59 2.09-4.69 4.69-4.69 2.6 0 4.69 2.1 4.69 4.69 0 2.6-2.09 4.7-4.69 4.7z"/>
		<path fill-rule="evenodd" class="s9" d="m56.46 410.96c-3.92 0-7.09-3.18-7.09-7.1 0-3.93 3.17-7.1 7.09-7.1 3.93 0 7.1 3.17 7.1 7.1 0 3.92-3.17 7.1-7.1 7.1z"/>
		<path fill-rule="evenodd" class="s53" d="m738.24 259.89c-3.65 0-6.6-2.95-6.6-6.6 0-3.65 2.95-6.6 6.6-6.6 3.65 0 6.6 2.95 6.6 6.6 0 3.65-2.95 6.6-6.6 6.6z"/>
		<path fill-rule="evenodd" class="s21" d="m503.87 436.08c-2.48 0-4.47-2-4.47-4.47 0-2.47 1.99-4.47 4.47-4.47 2.47 0 4.47 2 4.47 4.47 0 2.47-2 4.47-4.47 4.47z"/>
		<path fill-rule="evenodd" class="s13" d="m188.41 436.28c-2.83 0-5.12-2.29-5.12-5.12 0-2.84 2.29-5.13 5.12-5.13 2.84 0 5.13 2.29 5.13 5.13 0 2.83-2.29 5.12-5.13 5.12z"/>
		<path fill-rule="evenodd" class="s64" d="m461.39 320.84c-2.44 0-4.42-1.98-4.42-4.42 0-2.44 1.98-4.41 4.42-4.41 2.44 0 4.42 1.97 4.42 4.41 0 2.44-1.98 4.42-4.42 4.42z"/>
		<path fill-rule="evenodd" class="s69" d="m182.65 211.09c-3.46 0-6.25-2.79-6.25-6.25 0-3.45 2.79-6.24 6.25-6.24 3.45 0 6.24 2.79 6.24 6.24 0 3.46-2.79 6.25-6.24 6.25z"/>
		<path fill-rule="evenodd" class="s40" d="m437.24 416.78c-4.57 0-8.26-3.69-8.26-8.26 0-4.57 3.69-8.26 8.26-8.26 4.57 0 8.26 3.69 8.26 8.26 0 4.57-3.69 8.26-8.26 8.26z"/>
		<path fill-rule="evenodd" class="s46" d="m299.64 96.08c-4.15 0-7.5-3.36-7.5-7.5 0-4.15 3.35-7.51 7.5-7.51 4.15 0 7.5 3.36 7.5 7.51 0 4.14-3.35 7.5-7.5 7.5z"/>
		<path fill-rule="evenodd" class="s79" d="m683.37 587.44c-4.1 0-7.41-3.31-7.41-7.41 0-4.09 3.31-7.4 7.41-7.4 4.09 0 7.4 3.31 7.4 7.4 0 4.1-3.31 7.41-7.4 7.41z"/>
		<path fill-rule="evenodd" class="s22" d="m358.19 604.18c-2.52 0-4.56-2.04-4.56-4.56 0-2.51 2.04-4.55 4.56-4.55 2.52 0 4.55 2.04 4.55 4.55 0 2.52-2.03 4.56-4.55 4.56z"/>
		<path fill-rule="evenodd" class="s9" d="m36.64 647.77c-2.73 0-4.94-2.21-4.94-4.94 0-2.74 2.21-4.95 4.94-4.95 2.74 0 4.95 2.21 4.95 4.95 0 2.73-2.21 4.94-4.95 4.94z"/>
		<path fill-rule="evenodd" class="s66" d="m236.59 535.36c-4.11 0-7.44-3.32-7.44-7.43 0-4.11 3.33-7.43 7.44-7.43 4.1 0 7.43 3.32 7.43 7.43 0 4.11-3.33 7.43-7.43 7.43z"/>
		<path fill-rule="evenodd" class="s25" d="m145.76 234.78c-2.24 0-4.05-1.81-4.05-4.05 0-2.24 1.81-4.05 4.05-4.05 2.24 0 4.05 1.81 4.05 4.05 0 2.24-1.81 4.05-4.05 4.05z"/>
		<path fill-rule="evenodd" class="s43" d="m202.73 513.57c-4.06 0-7.33-3.28-7.33-7.33 0-4.06 3.27-7.33 7.33-7.33 4.05 0 7.33 3.27 7.33 7.33 0 4.05-3.28 7.33-7.33 7.33z"/>
		<path fill-rule="evenodd" class="s71" d="m617.79 653.81c-1.95 0-3.52-1.57-3.52-3.52 0-1.95 1.57-3.52 3.52-3.52 1.94 0 3.52 1.57 3.52 3.52 0 1.95-1.58 3.52-3.52 3.52z"/>
		<path fill-rule="evenodd" class="s85" d="m715.85 579.39c-3.86 0-6.99-3.13-6.99-6.99 0-3.87 3.13-6.99 6.99-6.99 3.87 0 6.99 3.12 6.99 6.99 0 3.86-3.12 6.99-6.99 6.99z"/>
		<path fill-rule="evenodd" class="s77" d="m619.88 745.23c-6.28 0-11.36-5.08-11.36-11.37 0-6.29 5.08-11.37 11.36-11.37 6.29 0 11.37 5.08 11.37 11.37 0 6.29-5.08 11.37-11.37 11.37z"/>
		<path fill-rule="evenodd" class="s33" d="m114.84 84.43c-2.87 0-5.2-2.33-5.2-5.2 0-2.88 2.33-5.21 5.2-5.21 2.88 0 5.2 2.33 5.2 5.21 0 2.87-2.32 5.2-5.2 5.2z"/>
		<path fill-rule="evenodd" class="s58" d="m273.07 353.28c-2.28 0-4.12-1.84-4.12-4.12 0-2.28 1.84-4.12 4.12-4.12 2.28 0 4.12 1.84 4.12 4.12 0 2.28-1.84 4.12-4.12 4.12z"/>
		<path fill-rule="evenodd" class="s83" d="m667.31 457.98c-2.28 0-4.13-1.84-4.13-4.12 0-2.28 1.85-4.12 4.13-4.12 2.27 0 4.12 1.84 4.12 4.12 0 2.28-1.85 4.12-4.12 4.12z"/>
		<path fill-rule="evenodd" class="s58" d="m647.64 537.47c-3.91 0-7.08-3.16-7.08-7.08 0-3.91 3.17-7.08 7.08-7.08 3.92 0 7.08 3.17 7.08 7.08 0 3.92-3.16 7.08-7.08 7.08z"/>
		<path fill-rule="evenodd" class="s84" d="m592.49 643.75c-2.46 0-4.44-1.98-4.44-4.44 0-2.45 1.98-4.44 4.44-4.44 2.45 0 4.44 1.99 4.44 4.44 0 2.46-1.99 4.44-4.44 4.44z"/>
		<path fill-rule="evenodd" class="s75" d="m271.65 128.04c-3.28 0-5.94-2.65-5.94-5.93 0-3.29 2.66-5.94 5.94-5.94 3.29 0 5.94 2.65 5.94 5.94 0 3.28-2.65 5.93-5.94 5.93z"/>
		<path fill-rule="evenodd" class="s11" d="m680.05 198.37c-2.84 0-5.13-2.29-5.13-5.13 0-2.84 2.29-5.13 5.13-5.13 2.84 0 5.13 2.29 5.13 5.13 0 2.84-2.29 5.13-5.13 5.13z"/>
		<path fill-rule="evenodd" class="s13" d="m448.83 86.13c-4.07 0-7.36-3.29-7.36-7.35 0-4.07 3.29-7.36 7.36-7.36 4.06 0 7.35 3.29 7.35 7.36 0 4.06-3.29 7.35-7.35 7.35z"/>
		<path fill-rule="evenodd" class="s60" d="m497.88 754.02c-4.4 0-7.95-3.55-7.95-7.95 0-4.39 3.55-7.94 7.95-7.94 4.39 0 7.94 3.55 7.94 7.94 0 4.4-3.55 7.95-7.94 7.95z"/>
		<path fill-rule="evenodd" class="s22" d="m508.64 348.64c-1.9 0-3.44-1.53-3.44-3.44 0-1.9 1.54-3.44 3.44-3.44 1.91 0 3.44 1.54 3.44 3.44 0 1.91-1.53 3.44-3.44 3.44z"/>
		<path fill-rule="evenodd" class="s19" d="m367.2 661.21c-2.75 0-4.97-2.22-4.97-4.97 0-2.75 2.22-4.97 4.97-4.97 2.75 0 4.97 2.22 4.97 4.97 0 2.75-2.22 4.97-4.97 4.97z"/>
		<path fill-rule="evenodd" class="s8" d="m295.61 221.02c-4.1 0-7.41-3.31-7.41-7.4 0-4.09 3.31-7.4 7.41-7.4 4.09 0 7.4 3.31 7.4 7.4 0 4.09-3.31 7.4-7.4 7.4z"/>
		<path fill-rule="evenodd" class="s32" d="m463.21 54.82c-4.31 0-7.79-3.48-7.79-7.79 0-4.31 3.48-7.79 7.79-7.79 4.31 0 7.8 3.48 7.8 7.79 0 4.31-3.49 7.79-7.8 7.79z"/>
		<path fill-rule="evenodd" class="s86" d="m85.8 115.29c-2.38 0-4.3-1.93-4.3-4.31 0-2.38 1.92-4.3 4.3-4.3 2.38 0 4.31 1.92 4.31 4.3 0 2.38-1.93 4.31-4.31 4.31z"/>
		<path fill-rule="evenodd" class="s73" d="m211.27 337.13c-2.47 0-4.46-1.99-4.46-4.46 0-2.47 1.99-4.46 4.46-4.46 2.47 0 4.46 1.99 4.46 4.46 0 2.47-1.99 4.46-4.46 4.46z"/>
		<path fill-rule="evenodd" class="s41" d="m657.04 485.2c-2.18 0-3.94-1.76-3.94-3.94 0-2.19 1.76-3.95 3.94-3.95 2.18 0 3.95 1.76 3.95 3.95 0 2.18-1.77 3.94-3.95 3.94z"/>
		<path fill-rule="evenodd" class="s76" d="m41.8 204.94c-2.56 0-4.62-2.06-4.62-4.62 0-2.55 2.06-4.62 4.62-4.62 2.55 0 4.62 2.07 4.62 4.62 0 2.56-2.07 4.62-4.62 4.62z"/>
		<path fill-rule="evenodd" class="s59" d="m341.94 709.75c-3.13 0-5.66-2.52-5.66-5.65 0-3.13 2.53-5.66 5.66-5.66 3.13 0 5.65 2.53 5.65 5.66 0 3.13-2.52 5.65-5.65 5.65z"/>
		<path fill-rule="evenodd" class="s63" d="m643.8 277.72c-3.8 0-6.88-3.07-6.88-6.88 0-3.81 3.08-6.89 6.88-6.89 3.81 0 6.89 3.08 6.89 6.89 0 3.81-3.08 6.88-6.89 6.88z"/>
		<path fill-rule="evenodd" class="s63" d="m541.13 246.77c-4.05 0-7.32-3.27-7.32-7.32 0-4.04 3.27-7.31 7.32-7.31 4.04 0 7.31 3.27 7.31 7.31 0 4.05-3.27 7.32-7.31 7.32z"/>
		<path fill-rule="evenodd" class="s5" d="m675.85 38.56c-5.86 0-10.6-4.74-10.6-10.6 0-5.86 4.74-10.59 10.6-10.59 5.86 0 10.59 4.73 10.59 10.59 0 5.86-4.73 10.6-10.59 10.6z"/>
		<path fill-rule="evenodd" class="s5" d="m426.36 701.17c-2.74 0-4.95-2.21-4.95-4.95 0-2.73 2.21-4.94 4.95-4.94 2.73 0 4.94 2.21 4.94 4.94 0 2.74-2.21 4.95-4.94 4.95z"/>
		<path fill-rule="evenodd" class="s19" d="m330.04 57.08c-3.01 0-5.44-2.43-5.44-5.44 0-3.01 2.43-5.44 5.44-5.44 3.01 0 5.44 2.43 5.44 5.44 0 3.01-2.43 5.44-5.44 5.44z"/>
		<path fill-rule="evenodd" class="s4" d="m604.12 285.45c-2.99 0-5.4-2.42-5.4-5.4 0-2.99 2.41-5.41 5.4-5.41 2.99 0 5.41 2.42 5.41 5.41 0 2.98-2.42 5.4-5.41 5.4z"/>
		<path fill-rule="evenodd" class="s41" d="m383.38 192.55c-3.48 0-6.29-2.81-6.29-6.29 0-3.48 2.81-6.29 6.29-6.29 3.47 0 6.28 2.81 6.28 6.29 0 3.48-2.81 6.29-6.28 6.29z"/>
		<path fill-rule="evenodd" class="s19" d="m155.68 98.35c-4.34 0-7.84-3.51-7.84-7.84 0-4.34 3.5-7.84 7.84-7.84 4.33 0 7.84 3.5 7.84 7.84 0 4.33-3.51 7.84-7.84 7.84z"/>
		<path fill-rule="evenodd" class="s56" d="m747.94 344.48c-3.61 0-6.53-2.92-6.53-6.54 0-3.61 2.92-6.53 6.53-6.53 3.61 0 6.53 2.92 6.53 6.53 0 3.62-2.92 6.54-6.53 6.54z"/>
		<path fill-rule="evenodd" class="s87" d="m147.98 339.44c-3.12 0-5.65-2.52-5.65-5.65 0-3.12 2.53-5.65 5.65-5.65 3.13 0 5.66 2.53 5.66 5.65 0 3.13-2.53 5.65-5.66 5.65z"/>
		<path fill-rule="evenodd" class="s5" d="m371.22 159.04c-2.39 0-4.32-1.94-4.32-4.33 0-2.39 1.93-4.32 4.32-4.32 2.39 0 4.33 1.93 4.33 4.32 0 2.39-1.94 4.33-4.33 4.33z"/>
		<path fill-rule="evenodd" class="s88" d="m504.74 216.12c-3.72 0-6.73-3-6.73-6.72 0-3.71 3.01-6.72 6.73-6.72 3.71 0 6.72 3.01 6.72 6.72 0 3.72-3.01 6.72-6.72 6.72z"/>
		<path fill-rule="evenodd" class="s81" d="m512.64 567.6c-2.8 0-5.06-2.26-5.06-5.06 0-2.8 2.26-5.06 5.06-5.06 2.8 0 5.06 2.26 5.06 5.06 0 2.8-2.26 5.06-5.06 5.06z"/>
		<path fill-rule="evenodd" class="s58" d="m683.52 385.86c-4.74 0-8.57-3.83-8.57-8.57 0-4.74 3.83-8.57 8.57-8.57 4.73 0 8.56 3.83 8.56 8.57 0 4.74-3.83 8.57-8.56 8.57z"/>
		<path fill-rule="evenodd" class="s4" d="m312.77 186.78c-1.98 0-3.59-1.6-3.59-3.58 0-1.98 1.61-3.58 3.59-3.58 1.98 0 3.58 1.6 3.58 3.58 0 1.98-1.6 3.58-3.58 3.58z"/>
		<path fill-rule="evenodd" class="s84" d="m193.26 365.44c-2.14 0-3.87-1.73-3.87-3.87 0-2.14 1.73-3.87 3.87-3.87 2.14 0 3.87 1.73 3.87 3.87 0 2.14-1.73 3.87-3.87 3.87z"/>
		<path fill-rule="evenodd" class="s33" d="m432.56 18.05c-2.16 0-3.91-1.75-3.91-3.91 0-2.16 1.75-3.91 3.91-3.91 2.16 0 3.9 1.75 3.9 3.91 0 2.16-1.74 3.91-3.9 3.91z"/>
		<path fill-rule="evenodd" class="s60" d="m393.92 753.78c-2.5 0-4.53-2.02-4.53-4.53 0-2.5 2.03-4.52 4.53-4.52 2.5 0 4.52 2.02 4.52 4.52 0 2.51-2.02 4.53-4.52 4.53z"/>
		<path fill-rule="evenodd" class="s50" d="m648.17 20.46c-1.98 0-3.58-1.6-3.58-3.58 0-1.98 1.6-3.58 3.58-3.58 1.97 0 3.57 1.6 3.57 3.58 0 1.98-1.6 3.58-3.57 3.58z"/>
		<path fill-rule="evenodd" class="s4" d="m697.29 121.35c-5.16 0-9.34-4.17-9.34-9.34 0-5.16 4.18-9.34 9.34-9.34 5.17 0 9.34 4.18 9.34 9.34 0 5.17-4.17 9.34-9.34 9.34z"/>
		<path fill-rule="evenodd" class="s71" d="m179 279.39c-2.09 0-3.77-1.69-3.77-3.77 0-2.09 1.68-3.77 3.77-3.77 2.08 0 3.76 1.68 3.76 3.77 0 2.08-1.68 3.77-3.76 3.77z"/>
		<path fill-rule="evenodd" class="s35" d="m19.46 354.33c-3 0-5.43-2.43-5.43-5.43 0-3 2.43-5.43 5.43-5.43 3 0 5.42 2.43 5.42 5.43 0 3-2.42 5.43-5.42 5.43z"/>
		<path fill-rule="evenodd" class="s40" d="m94.51 415.45c-2.63 0-4.76-2.13-4.76-4.77 0-2.64 2.13-4.77 4.76-4.77 2.64 0 4.77 2.13 4.77 4.77 0 2.64-2.13 4.77-4.77 4.77z"/>
		<path fill-rule="evenodd" class="s7" d="m406.51 337.26c-2.67 0-4.82-2.16-4.82-4.82 0-2.66 2.15-4.81 4.82-4.81 2.66 0 4.81 2.15 4.81 4.81 0 2.66-2.15 4.82-4.81 4.82z"/>
		<path fill-rule="evenodd" class="s50" d="m612.49 423.17c-5.27 0-9.52-4.25-9.52-9.52 0-5.26 4.25-9.52 9.52-9.52 5.26 0 9.52 4.26 9.52 9.52 0 5.27-4.26 9.52-9.52 9.52z"/>
		<path fill-rule="evenodd" class="s18" d="m770.7 108.71c-2.36 0-4.26-1.91-4.26-4.26 0-2.36 1.9-4.27 4.26-4.27 2.36 0 4.26 1.91 4.26 4.27 0 2.35-1.9 4.26-4.26 4.26z"/>
		<path fill-rule="evenodd" class="s36" d="m299.14 427.64c-3.23 0-5.84-2.61-5.84-5.84 0-3.23 2.61-5.84 5.84-5.84 3.23 0 5.84 2.61 5.84 5.84 0 3.23-2.61 5.84-5.84 5.84z"/>
		<path fill-rule="evenodd" class="s17" d="m776.22 376.8c-3.72 0-6.73-3-6.73-6.73 0-3.72 3.01-6.73 6.73-6.73 3.72 0 6.73 3.01 6.73 6.73 0 3.73-3.01 6.73-6.73 6.73z"/>
		<path fill-rule="evenodd" class="s14" d="m583.57 26.83c-3.46 0-6.25-2.79-6.25-6.24 0-3.45 2.79-6.24 6.25-6.24 3.45 0 6.24 2.79 6.24 6.24 0 3.45-2.79 6.24-6.24 6.24z"/>
		<path fill-rule="evenodd" class="s57" d="m562.12 374.05c-2.31 0-4.18-1.86-4.18-4.17 0-2.31 1.87-4.18 4.18-4.18 2.31 0 4.17 1.87 4.17 4.18 0 2.31-1.86 4.17-4.17 4.17z"/>
		<path fill-rule="evenodd" class="s3" d="m223.95 375.43c-3.54 0-6.4-2.86-6.4-6.4 0-3.54 2.86-6.4 6.4-6.4 3.54 0 6.41 2.86 6.41 6.4 0 3.54-2.87 6.4-6.41 6.4z"/>
		<path fill-rule="evenodd" class="s82" d="m70.1 54.95c-3.21 0-5.8-2.59-5.8-5.79 0-3.2 2.59-5.79 5.8-5.79 3.2 0 5.79 2.59 5.79 5.79 0 3.2-2.59 5.79-5.79 5.79z"/>
		<path fill-rule="evenodd" class="s23" d="m625.96 594.01c-3.68 0-6.66-2.98-6.66-6.66 0-3.68 2.98-6.65 6.66-6.65 3.68 0 6.65 2.97 6.65 6.65 0 3.68-2.97 6.66-6.65 6.66z"/>
		<path fill-rule="evenodd" class="s21" d="m667.19 752.6c-2.92 0-5.29-2.37-5.29-5.3 0-2.92 2.37-5.29 5.29-5.29 2.93 0 5.3 2.37 5.3 5.29 0 2.93-2.37 5.3-5.3 5.3z"/>
		<path fill-rule="evenodd" class="s75" d="m289.97 338.5c-2.68 0-4.84-2.16-4.84-4.84 0-2.69 2.16-4.85 4.84-4.85 2.68 0 4.85 2.16 4.85 4.85 0 2.68-2.17 4.84-4.85 4.84z"/>
		<path fill-rule="evenodd" class="s79" d="m578.24 355.15c-2.9 0-5.23-2.34-5.23-5.23 0-2.89 2.33-5.23 5.23-5.23 2.89 0 5.23 2.34 5.23 5.23 0 2.89-2.34 5.23-5.23 5.23z"/>
		<path fill-rule="evenodd" class="s36" d="m29.57 696.93c-2.5 0-4.53-2.03-4.53-4.53 0-2.5 2.03-4.53 4.53-4.53 2.5 0 4.52 2.03 4.52 4.53 0 2.5-2.02 4.53-4.52 4.53z"/>
		<path fill-rule="evenodd" class="s5" d="m230.19 234.91c-3.91 0-7.06-3.16-7.06-7.06 0-3.9 3.15-7.06 7.06-7.06 3.9 0 7.05 3.16 7.05 7.06 0 3.9-3.15 7.06-7.05 7.06z"/>
		<path fill-rule="evenodd" class="s76" d="m350.38 436.42c-3.05 0-5.51-2.46-5.51-5.51 0-3.04 2.46-5.5 5.51-5.5 3.05 0 5.51 2.46 5.51 5.5 0 3.05-2.46 5.51-5.51 5.51z"/>
		<path fill-rule="evenodd" class="s14" d="m73.04 715.36c-1.7 0-3.08-1.37-3.08-3.07 0-1.71 1.38-3.08 3.08-3.08 1.7 0 3.08 1.37 3.08 3.08 0 1.7-1.38 3.07-3.08 3.07z"/>
		<path fill-rule="evenodd" class="s44" d="m374.65 503.72c-3.67 0-6.63-2.96-6.63-6.63 0-3.67 2.96-6.64 6.63-6.64 3.67 0 6.64 2.97 6.64 6.64 0 3.67-2.97 6.63-6.64 6.63z"/>
		<path fill-rule="evenodd" class="s62" d="m65.98 218.74c-3.22 0-5.82-2.6-5.82-5.82 0-3.23 2.6-5.83 5.82-5.83 3.23 0 5.83 2.6 5.83 5.83 0 3.22-2.6 5.82-5.83 5.82z"/>
		<path fill-rule="evenodd" class="s28" d="m390.19 682.5c-3.51 0-6.34-2.84-6.34-6.34 0-3.51 2.83-6.35 6.34-6.35 3.51 0 6.34 2.84 6.34 6.35 0 3.5-2.83 6.34-6.34 6.34z"/>
		<path fill-rule="evenodd" class="s79" d="m329.05 765.49c-2.99 0-5.4-2.42-5.4-5.41 0-2.98 2.41-5.4 5.4-5.4 2.99 0 5.41 2.42 5.41 5.4 0 2.99-2.42 5.41-5.41 5.41z"/>
		<path fill-rule="evenodd" class="s33" d="m117.07 219.27c-2.73 0-4.94-2.2-4.94-4.93 0-2.73 2.21-4.94 4.94-4.94 2.73 0 4.93 2.21 4.93 4.94 0 2.73-2.2 4.93-4.93 4.93z"/>
		<path fill-rule="evenodd" class="s89" d="m449.81 754.06c-5.15 0-9.32-4.17-9.32-9.32 0-5.16 4.17-9.33 9.32-9.33 5.16 0 9.33 4.17 9.33 9.33 0 5.15-4.17 9.32-9.33 9.32z"/>
		<path fill-rule="evenodd" class="s37" d="m205.44 117.32c-3.26 0-5.89-2.64-5.89-5.89 0-3.26 2.63-5.89 5.89-5.89 3.25 0 5.89 2.63 5.89 5.89 0 3.25-2.64 5.89-5.89 5.89z"/>
		<path fill-rule="evenodd" class="s42" d="m728.23 316.43c-2.02 0-3.66-1.63-3.66-3.66 0-2.02 1.64-3.66 3.66-3.66 2.03 0 3.66 1.64 3.66 3.66 0 2.03-1.63 3.66-3.66 3.66z"/>
		<path fill-rule="evenodd" class="s33" d="m355.83 262.35c-2.57 0-4.65-2.08-4.65-4.65 0-2.58 2.08-4.66 4.65-4.66 2.57 0 4.65 2.08 4.65 4.66 0 2.57-2.08 4.65-4.65 4.65z"/>
		<path fill-rule="evenodd" class="s52" d="m174.28 699.85c-2.95 0-5.33-2.38-5.33-5.33 0-2.94 2.38-5.32 5.33-5.32 2.94 0 5.32 2.38 5.32 5.32 0 2.95-2.38 5.33-5.32 5.33z"/>
		<path fill-rule="evenodd" class="s67" d="m310.52 746.27c-2 0-3.61-1.61-3.61-3.61 0-2 1.61-3.61 3.61-3.61 2 0 3.61 1.61 3.61 3.61 0 2-1.61 3.61-3.61 3.61z"/>
		<path fill-rule="evenodd" class="s22" d="m699.87 313.52c-2.23 0-4.04-1.8-4.04-4.04 0-2.23 1.81-4.04 4.04-4.04 2.24 0 4.04 1.81 4.04 4.04 0 2.24-1.8 4.04-4.04 4.04z"/>
		<path fill-rule="evenodd" class="s89" d="m582.21 296.59c-1.8 0-3.24-1.45-3.24-3.24 0-1.79 1.44-3.24 3.24-3.24 1.79 0 3.23 1.45 3.23 3.24 0 1.79-1.44 3.24-3.23 3.24z"/>
		<path fill-rule="evenodd" class="s39" d="m786.12 674.6c-2.56 0-4.64-2.07-4.64-4.64 0-2.56 2.08-4.63 4.64-4.63 2.57 0 4.64 2.07 4.64 4.63 0 2.57-2.07 4.64-4.64 4.64z"/>
		<path fill-rule="evenodd" class="s87" d="m57.34 580.09c-4.4 0-7.95-3.55-7.95-7.95 0-4.4 3.55-7.95 7.95-7.95 4.4 0 7.96 3.55 7.96 7.95 0 4.4-3.56 7.95-7.96 7.95z"/>
		<path fill-rule="evenodd" class="s38" d="m783.35 484.84c-3.49 0-6.31-2.82-6.31-6.31 0-3.49 2.82-6.31 6.31-6.31 3.49 0 6.31 2.82 6.31 6.31 0 3.49-2.82 6.31-6.31 6.31z"/>
		<path fill-rule="evenodd" class="s41" d="m761.34 519.19c-3.58 0-6.48-2.89-6.48-6.47 0-3.59 2.9-6.48 6.48-6.48 3.58 0 6.48 2.89 6.48 6.48 0 3.58-2.9 6.47-6.48 6.47z"/>
		<path fill-rule="evenodd" class="s15" d="m737.39 539.69c-3.99 0-7.21-3.22-7.21-7.21 0-3.98 3.22-7.2 7.21-7.2 3.98 0 7.2 3.22 7.2 7.2 0 3.99-3.22 7.21-7.2 7.21z"/>
		<path fill-rule="evenodd" class="s44" d="m639.84 637.93c-2.97 0-5.37-2.4-5.37-5.37 0-2.97 2.4-5.37 5.37-5.37 2.96 0 5.36 2.4 5.36 5.37 0 2.97-2.4 5.37-5.36 5.37z"/>
		<path fill-rule="evenodd" class="s79" d="m395.4 39.31c-2.84 0-5.14-2.3-5.14-5.14 0-2.84 2.3-5.14 5.14-5.14 2.84 0 5.14 2.3 5.14 5.14 0 2.84-2.3 5.14-5.14 5.14z"/>
		<path fill-rule="evenodd" class="s54" d="m593.4 497.54c-2.39 0-4.32-1.93-4.32-4.32 0-2.39 1.93-4.31 4.32-4.31 2.39 0 4.32 1.92 4.32 4.31 0 2.39-1.93 4.32-4.32 4.32z"/>
		<path fill-rule="evenodd" class="s46" d="m21.61 318.78c-4.59 0-8.3-3.71-8.3-8.3 0-4.6 3.71-8.31 8.3-8.31 4.6 0 8.31 3.71 8.31 8.31 0 4.59-3.71 8.3-8.31 8.3z"/>
		<path fill-rule="evenodd" class="s47" d="m125.1 316.75c-1.91 0-3.45-1.55-3.45-3.45 0-1.91 1.54-3.45 3.45-3.45 1.91 0 3.45 1.54 3.45 3.45 0 1.9-1.54 3.45-3.45 3.45z"/>
		<path fill-rule="evenodd" class="s33" d="m432.37 670.39c-4.06 0-7.34-3.28-7.34-7.34 0-4.06 3.28-7.34 7.34-7.34 4.06 0 7.34 3.28 7.34 7.34 0 4.06-3.28 7.34-7.34 7.34z"/>
		<path fill-rule="evenodd" class="s3" d="m512.11 295.14c-2.35 0-4.25-1.89-4.25-4.24 0-2.35 1.9-4.24 4.25-4.24 2.34 0 4.24 1.89 4.24 4.24 0 2.35-1.9 4.24-4.24 4.24z"/>
		<path fill-rule="evenodd" class="s68" d="m369.06 380.06c-3.1 0-5.6-2.5-5.6-5.59 0-3.09 2.5-5.59 5.6-5.59 3.09 0 5.59 2.5 5.59 5.59 0 3.09-2.5 5.59-5.59 5.59z"/>
		<path fill-rule="evenodd" class="s65" d="m254.36 208.97c-5.44 0-9.85-4.4-9.85-9.85 0-5.45 4.41-9.85 9.85-9.85 5.45 0 9.86 4.4 9.86 9.85 0 5.45-4.41 9.85-9.86 9.85z"/>
		<path fill-rule="evenodd" class="s25" d="m787 529.39c-2.26 0-4.09-1.83-4.09-4.09 0-2.26 1.83-4.08 4.09-4.08 2.26 0 4.08 1.82 4.08 4.08 0 2.26-1.82 4.09-4.08 4.09z"/>
		<path fill-rule="evenodd" class="s4" d="m788.08 149.63c-2.68 0-4.84-2.16-4.84-4.83 0-2.68 2.16-4.84 4.84-4.84 2.67 0 4.83 2.16 4.83 4.84 0 2.67-2.16 4.83-4.83 4.83z"/>
		<path fill-rule="evenodd" class="s54" d="m524.96 679c-3.08 0-5.58-2.49-5.58-5.58 0-3.08 2.5-5.58 5.58-5.58 3.09 0 5.58 2.5 5.58 5.58 0 3.09-2.49 5.58-5.58 5.58z"/>
		<path fill-rule="evenodd" class="s38" d="m640.55 231.49c-3.48 0-6.29-2.81-6.29-6.28 0-3.48 2.81-6.29 6.29-6.29 3.47 0 6.28 2.81 6.28 6.29 0 3.47-2.81 6.28-6.28 6.28z"/>
		<path fill-rule="evenodd" class="s29" d="m167.07 139.13c-3.8 0-6.87-3.07-6.87-6.87 0-3.8 3.07-6.87 6.87-6.87 3.8 0 6.87 3.07 6.87 6.87 0 3.8-3.07 6.87-6.87 6.87z"/>
		<path fill-rule="evenodd" class="s64" d="m724.32 618.42c-2.45 0-4.43-1.98-4.43-4.43 0-2.45 1.98-4.43 4.43-4.43 2.45 0 4.43 1.98 4.43 4.43 0 2.45-1.98 4.43-4.43 4.43z"/>
		<path fill-rule="evenodd" class="s8" d="m489.28 142.68c-3.23 0-5.85-2.62-5.85-5.85 0-3.23 2.62-5.84 5.85-5.84 3.23 0 5.84 2.61 5.84 5.84 0 3.23-2.61 5.85-5.84 5.85z"/>
		<path fill-rule="evenodd" class="s63" d="m364.72 791.87c-2.97 0-5.36-2.39-5.36-5.36 0-2.96 2.39-5.35 5.36-5.35 2.96 0 5.36 2.39 5.36 5.35 0 2.97-2.4 5.36-5.36 5.36z"/>
		<path fill-rule="evenodd" class="s56" d="m117.14 346.51c-2.74 0-4.96-2.22-4.96-4.96 0-2.74 2.22-4.96 4.96-4.96 2.74 0 4.96 2.22 4.96 4.96 0 2.74-2.22 4.96-4.96 4.96z"/>
		<path fill-rule="evenodd" class="s90" d="m399.2 93.69c-2.49 0-4.5-2.01-4.5-4.5 0-2.48 2.01-4.5 4.5-4.5 2.49 0 4.5 2.02 4.5 4.5 0 2.49-2.01 4.5-4.5 4.5z"/>
		<path fill-rule="evenodd" class="s20" d="m242.17 34.31c-6.26 0-11.33-5.06-11.33-11.32 0-6.26 5.07-11.33 11.33-11.33 6.26 0 11.32 5.07 11.32 11.33 0 6.26-5.06 11.32-11.32 11.32z"/>
		<path fill-rule="evenodd" class="s62" d="m765.16 61.87c-2.43 0-4.4-1.97-4.4-4.4 0-2.44 1.97-4.41 4.4-4.41 2.44 0 4.41 1.97 4.41 4.41 0 2.43-1.97 4.4-4.41 4.4z"/>
		<path fill-rule="evenodd" class="s85" d="m121.85 793.92c-3.22 0-5.83-2.61-5.83-5.83 0-3.22 2.61-5.83 5.83-5.83 3.23 0 5.83 2.61 5.83 5.83 0 3.22-2.6 5.83-5.83 5.83z"/>
		<path fill-rule="evenodd" class="s38" d="m111.46 259.13c-3.76 0-6.8-3.04-6.8-6.8 0-3.76 3.04-6.79 6.8-6.79 3.75 0 6.79 3.03 6.79 6.79 0 3.76-3.04 6.8-6.79 6.8z"/>
		<path fill-rule="evenodd" class="s84" d="m777.88 727.93c-5.11 0-9.25-4.14-9.25-9.26 0-5.11 4.14-9.25 9.25-9.25 5.12 0 9.25 4.14 9.25 9.25 0 5.12-4.13 9.26-9.25 9.26z"/>
		<path fill-rule="evenodd" class="s91" d="m336.01 541.45c-3.27 0-5.9-2.63-5.9-5.9 0-3.26 2.63-5.9 5.9-5.9 3.26 0 5.9 2.64 5.9 5.9 0 3.27-2.64 5.9-5.9 5.9z"/>
		<path fill-rule="evenodd" class="s59" d="m321.83 661.7c-2.51 0-4.54-2.03-4.54-4.54 0-2.51 2.03-4.54 4.54-4.54 2.51 0 4.54 2.03 4.54 4.54 0 2.51-2.03 4.54-4.54 4.54z"/>
		<path fill-rule="evenodd" class="s16" d="m168.1 307.55c-3.11 0-5.62-2.51-5.62-5.63 0-3.11 2.51-5.63 5.62-5.63 3.12 0 5.63 2.52 5.63 5.63 0 3.12-2.51 5.63-5.63 5.63z"/>
		<path fill-rule="evenodd" class="s62" d="m121.64 742.89c-4.25 0-7.69-3.44-7.69-7.69 0-4.25 3.44-7.69 7.69-7.69 4.25 0 7.69 3.44 7.69 7.69 0 4.25-3.44 7.69-7.69 7.69z"/>
		<path fill-rule="evenodd" class="s36" d="m369.7 710.22c-3.55 0-6.43-2.87-6.43-6.43 0-3.55 2.88-6.43 6.43-6.43 3.56 0 6.43 2.88 6.43 6.43 0 3.56-2.87 6.43-6.43 6.43z"/>
		<path fill-rule="evenodd" class="s68" d="m747.24 577.58c-2.85 0-5.16-2.3-5.16-5.15 0-2.85 2.31-5.16 5.16-5.16 2.85 0 5.15 2.31 5.15 5.16 0 2.85-2.3 5.15-5.15 5.15z"/>
		<path fill-rule="evenodd" class="s1" d="m568.35 555.53c-3.68 0-6.66-2.98-6.66-6.66 0-3.68 2.98-6.66 6.66-6.66 3.68 0 6.65 2.98 6.65 6.66 0 3.68-2.97 6.66-6.65 6.66z"/>
		<path fill-rule="evenodd" class="s28" d="m519.04 716.26c-2.92 0-5.29-2.37-5.29-5.29 0-2.93 2.37-5.3 5.29-5.3 2.93 0 5.3 2.37 5.3 5.3 0 2.92-2.37 5.29-5.3 5.29z"/>
		<path fill-rule="evenodd" class="s62" d="m788.16 200.74c-2.27 0-4.11-1.84-4.11-4.12 0-2.27 1.84-4.11 4.11-4.11 2.28 0 4.11 1.84 4.11 4.11 0 2.28-1.83 4.12-4.11 4.12z"/>
		<path fill-rule="evenodd" class="s64" d="m268.45 70.1c-2.83 0-5.13-2.29-5.13-5.12 0-2.84 2.3-5.13 5.13-5.13 2.83 0 5.13 2.29 5.13 5.13 0 2.83-2.3 5.12-5.13 5.12z"/>
		<path fill-rule="evenodd" class="s12" d="m579.16 59.66c-3.63 0-6.56-2.94-6.56-6.57 0-3.63 2.93-6.56 6.56-6.56 3.63 0 6.57 2.93 6.57 6.56 0 3.63-2.94 6.57-6.57 6.57z"/>
		<path fill-rule="evenodd" class="s85" d="m628.35 498.56c-2.56 0-4.63-2.07-4.63-4.63 0-2.56 2.07-4.63 4.63-4.63 2.56 0 4.63 2.07 4.63 4.63 0 2.56-2.07 4.63-4.63 4.63z"/>
		<path fill-rule="evenodd" class="s9" d="m92.82 209.87c-2.28 0-4.12-1.84-4.12-4.11 0-2.28 1.84-4.12 4.12-4.12 2.28 0 4.12 1.84 4.12 4.12 0 2.27-1.84 4.11-4.12 4.11z"/>
		<path fill-rule="evenodd" class="s44" d="m283.52 692.78c-3.48 0-6.3-2.81-6.3-6.29 0-3.49 2.82-6.3 6.3-6.3 3.48 0 6.3 2.81 6.3 6.3 0 3.48-2.82 6.29-6.3 6.29z"/>
		<path fill-rule="evenodd" class="s67" d="m726.45 83.08c-4.82 0-8.72-3.89-8.72-8.72 0-4.82 3.9-8.72 8.72-8.72 4.82 0 8.72 3.9 8.72 8.72 0 4.83-3.9 8.72-8.72 8.72z"/>
		<path fill-rule="evenodd" class="s29" d="m409.4 555.34c-4.82 0-8.71-3.9-8.71-8.72 0-4.82 3.89-8.71 8.71-8.71 4.82 0 8.72 3.89 8.72 8.71 0 4.82-3.9 8.72-8.72 8.72z"/>
		<path fill-rule="evenodd" class="s21" d="m163.22 478.61c-3.17 0-5.74-2.57-5.74-5.74 0-3.18 2.57-5.75 5.74-5.75 3.18 0 5.75 2.57 5.75 5.75 0 3.17-2.57 5.74-5.75 5.74z"/>
		<path fill-rule="evenodd" class="s14" d="m788.53 82.37c-3.03 0-5.48-2.45-5.48-5.48 0-3.03 2.45-5.48 5.48-5.48 3.03 0 5.48 2.45 5.48 5.48 0 3.03-2.45 5.48-5.48 5.48z"/>
		<path fill-rule="evenodd" class="s31" d="m61.88 317.46c-3.26 0-5.89-2.64-5.89-5.9 0-3.26 2.63-5.89 5.89-5.89 3.26 0 5.9 2.63 5.9 5.89 0 3.26-2.64 5.9-5.9 5.9z"/>
		<path fill-rule="evenodd" class="s18" d="m216.2 575.85c-3.91 0-7.08-3.17-7.08-7.08 0-3.92 3.17-7.09 7.08-7.09 3.92 0 7.09 3.17 7.09 7.09 0 3.91-3.17 7.08-7.09 7.08z"/>
		<path fill-rule="evenodd" class="s29" d="m653.44 407.67c-4.67 0-8.45-3.78-8.45-8.45 0-4.67 3.78-8.45 8.45-8.45 4.68 0 8.45 3.78 8.45 8.45 0 4.67-3.77 8.45-8.45 8.45z"/>
		<path fill-rule="evenodd" class="s35" d="m17.89 121.58c-2.61 0-4.72-2.11-4.72-4.73 0-2.61 2.11-4.72 4.72-4.72 2.61 0 4.72 2.11 4.72 4.72 0 2.62-2.11 4.73-4.72 4.73z"/>
		<path fill-rule="evenodd" class="s15" d="m375.24 121.82c-3.36 0-6.07-2.71-6.07-6.07 0-3.36 2.71-6.07 6.07-6.07 3.36 0 6.07 2.71 6.07 6.07 0 3.36-2.71 6.07-6.07 6.07z"/>
		<path fill-rule="evenodd" class="s24" d="m604.74 15.23c-2.4 0-4.34-1.94-4.34-4.34 0-2.4 1.94-4.35 4.34-4.35 2.4 0 4.34 1.95 4.34 4.35 0 2.4-1.94 4.34-4.34 4.34z"/>
		<path fill-rule="evenodd" class="s65" d="m49.07 503.44c-3.03 0-5.48-2.44-5.48-5.47 0-3.03 2.45-5.48 5.48-5.48 3.03 0 5.47 2.45 5.47 5.48 0 3.03-2.44 5.47-5.47 5.47z"/>
		<path fill-rule="evenodd" class="s72" d="m578.23 668.72c-3.05 0-5.52-2.47-5.52-5.52 0-3.05 2.47-5.52 5.52-5.52 3.06 0 5.53 2.47 5.53 5.52 0 3.05-2.47 5.52-5.53 5.52z"/>
		<path fill-rule="evenodd" class="s81" d="m221.55 626.86c-2.61 0-4.71-2.1-4.71-4.71 0-2.6 2.1-4.7 4.71-4.7 2.6 0 4.7 2.1 4.7 4.7 0 2.61-2.1 4.71-4.7 4.71z"/>
		<path fill-rule="evenodd" class="s16" d="m655.14 609.49c-3.15 0-5.69-2.54-5.69-5.68 0-3.14 2.54-5.68 5.69-5.68 3.14 0 5.68 2.54 5.68 5.68 0 3.14-2.54 5.68-5.68 5.68z"/>
		<path fill-rule="evenodd" class="s28" d="m692.77 548.68c-2.86 0-5.16-2.3-5.16-5.15 0-2.85 2.3-5.16 5.16-5.16 2.85 0 5.15 2.31 5.15 5.16 0 2.85-2.3 5.15-5.15 5.15z"/>
		<path fill-rule="evenodd" class="s17" d="m397.77 446.66c-5.53 0-9.99-4.47-9.99-9.99 0-5.53 4.46-9.99 9.99-9.99 5.53 0 9.99 4.46 9.99 9.99 0 5.52-4.46 9.99-9.99 9.99z"/>
		<path fill-rule="evenodd" class="s85" d="m49.54 376.92c-3.42 0-6.18-2.76-6.18-6.17 0-3.41 2.76-6.17 6.18-6.17 3.41 0 6.17 2.76 6.17 6.17 0 3.41-2.76 6.17-6.17 6.17z"/>
		<path fill-rule="evenodd" class="s72" d="m127.2 120.19c-2.85 0-5.15-2.3-5.15-5.14 0-2.85 2.3-5.15 5.15-5.15 2.84 0 5.14 2.3 5.14 5.15 0 2.84-2.3 5.14-5.14 5.14z"/>
		<path fill-rule="evenodd" class="s80" d="m669.74 281.39c-3.7 0-6.68-2.98-6.68-6.68 0-3.69 2.98-6.68 6.68-6.68 3.7 0 6.68 2.99 6.68 6.68 0 3.7-2.98 6.68-6.68 6.68z"/>
		<path fill-rule="evenodd" class="s83" d="m781.96 267.95c-4.34 0-7.85-3.51-7.85-7.85 0-4.34 3.51-7.85 7.85-7.85 4.34 0 7.85 3.51 7.85 7.85 0 4.34-3.51 7.85-7.85 7.85z"/>
		<path fill-rule="evenodd" class="s81" d="m280.78 253.44c-3.64 0-6.58-2.94-6.58-6.58 0-3.64 2.94-6.58 6.58-6.58 3.63 0 6.58 2.94 6.58 6.58 0 3.64-2.95 6.58-6.58 6.58z"/>
		<path fill-rule="evenodd" class="s62" d="m613.12 259.43c-2.59 0-4.69-2.1-4.69-4.69 0-2.59 2.1-4.69 4.69-4.69 2.59 0 4.69 2.1 4.69 4.69 0 2.59-2.1 4.69-4.69 4.69z"/>
		<path fill-rule="evenodd" class="s86" d="m632.02 100.3c-6.4 0-11.56-5.17-11.56-11.57 0-6.39 5.16-11.56 11.56-11.56 6.39 0 11.56 5.17 11.56 11.56 0 6.4-5.17 11.57-11.56 11.57z"/>
		<path fill-rule="evenodd" class="s22" d="m267.85 464.83c-3.94 0-7.12-3.18-7.12-7.12 0-3.93 3.18-7.12 7.12-7.12 3.93 0 7.12 3.19 7.12 7.12 0 3.94-3.19 7.12-7.12 7.12z"/>
		<path fill-rule="evenodd" class="s53" d="m282.11 179.02c-2.43 0-4.39-1.96-4.39-4.38 0-2.43 1.96-4.39 4.39-4.39 2.42 0 4.38 1.96 4.38 4.39 0 2.42-1.96 4.38-4.38 4.38z"/>
		<path fill-rule="evenodd" class="s26" d="m359.74 740.92c-3.33 0-6.02-2.69-6.02-6.02 0-3.32 2.69-6.01 6.02-6.01 3.33 0 6.02 2.69 6.02 6.01 0 3.33-2.69 6.02-6.02 6.02z"/>
		<path fill-rule="evenodd" class="s19" d="m417.86 156.1c-3.63 0-6.56-2.93-6.56-6.56 0-3.62 2.93-6.55 6.56-6.55 3.62 0 6.55 2.93 6.55 6.55 0 3.63-2.93 6.56-6.55 6.56z"/>
		<path fill-rule="evenodd" class="s45" d="m319.63 250.46c-3.98 0-7.2-3.22-7.2-7.2 0-3.98 3.22-7.2 7.2-7.2 3.98 0 7.2 3.22 7.2 7.2 0 3.98-3.22 7.2-7.2 7.2z"/>
		<path fill-rule="evenodd" class="s31" d="m587.74 712.11c-3.77 0-6.81-3.05-6.81-6.81 0-3.76 3.04-6.81 6.81-6.81 3.76 0 6.81 3.05 6.81 6.81 0 3.76-3.05 6.81-6.81 6.81z"/>
		<path fill-rule="evenodd" class="s41" d="m50.91 533.66c-3.9 0-7.06-3.16-7.06-7.07 0-3.9 3.16-7.06 7.06-7.06 3.91 0 7.07 3.16 7.07 7.06 0 3.91-3.16 7.07-7.07 7.07z"/>
		<path fill-rule="evenodd" class="s74" d="m557.12 424.67c-2.25 0-4.07-1.82-4.07-4.07 0-2.26 1.82-4.07 4.07-4.07 2.25 0 4.07 1.81 4.07 4.07 0 2.25-1.82 4.07-4.07 4.07z"/>
		<path fill-rule="evenodd" class="s15" d="m380.22 322.72c-3.04 0-5.5-2.46-5.5-5.5 0-3.04 2.46-5.5 5.5-5.5 3.04 0 5.5 2.46 5.5 5.5 0 3.04-2.46 5.5-5.5 5.5z"/>
		<path fill-rule="evenodd" class="s84" d="m217.69 72.6c-4.51 0-8.16-3.65-8.16-8.16 0-4.51 3.65-8.16 8.16-8.16 4.51 0 8.16 3.65 8.16 8.16 0 4.51-3.65 8.16-8.16 8.16z"/>
		<path fill-rule="evenodd" class="s64" d="m349.06 406.1c-2.63 0-4.76-2.13-4.76-4.76 0-2.63 2.13-4.76 4.76-4.76 2.63 0 4.76 2.13 4.76 4.76 0 2.63-2.13 4.76-4.76 4.76z"/>
		<path fill-rule="evenodd" class="s46" d="m107.52 770.5c-1.96 0-3.54-1.58-3.54-3.53 0-1.95 1.58-3.53 3.54-3.53 1.95 0 3.53 1.58 3.53 3.53 0 1.95-1.58 3.53-3.53 3.53z"/>
		<path fill-rule="evenodd" class="s83" d="m144.3 674.55c-2.08 0-3.75-1.67-3.75-3.75 0-2.07 1.67-3.74 3.75-3.74 2.07 0 3.74 1.67 3.74 3.74 0 2.08-1.67 3.75-3.74 3.75z"/>
		<path fill-rule="evenodd" class="s71" d="m484.93 408.65c-2.94 0-5.31-2.37-5.31-5.3 0-2.94 2.37-5.31 5.31-5.31 2.93 0 5.3 2.37 5.3 5.31 0 2.93-2.37 5.3-5.3 5.3z"/>
		<path fill-rule="evenodd" class="s8" d="m248.28 430.95c-3.11 0-5.63-2.52-5.63-5.63 0-3.11 2.52-5.62 5.63-5.62 3.11 0 5.62 2.51 5.62 5.62 0 3.11-2.51 5.63-5.62 5.63z"/>
		<path fill-rule="evenodd" class="s41" d="m445.45 629c-4.5 0-8.15-3.64-8.15-8.15 0-4.5 3.65-8.15 8.15-8.15 4.51 0 8.15 3.65 8.15 8.15 0 4.51-3.64 8.15-8.15 8.15z"/>
		<path fill-rule="evenodd" class="s2" d="m779.24 434.26c-4.18 0-7.55-3.37-7.55-7.54 0-4.18 3.37-7.55 7.55-7.55 4.17 0 7.54 3.37 7.54 7.55 0 4.17-3.37 7.54-7.54 7.54z"/>
		<path fill-rule="evenodd" class="s33" d="m16.98 495.29c-3.65 0-6.59-2.95-6.59-6.59 0-3.65 2.94-6.6 6.59-6.6 3.65 0 6.6 2.95 6.6 6.6 0 3.64-2.95 6.59-6.6 6.59z"/>
		<path fill-rule="evenodd" class="s63" d="m13.58 582.91c-2.49 0-4.5-2.01-4.5-4.5 0-2.49 2.01-4.5 4.5-4.5 2.49 0 4.51 2.01 4.51 4.5 0 2.49-2.02 4.5-4.51 4.5z"/>
		<path fill-rule="evenodd" class="s42" d="m171.11 173.38c-2.53 0-4.58-2.05-4.58-4.58 0-2.52 2.05-4.57 4.58-4.57 2.53 0 4.57 2.05 4.57 4.57 0 2.53-2.04 4.58-4.57 4.58z"/>
		<path fill-rule="evenodd" class="s23" d="m487.94 533.13c-5.03 0-9.1-4.07-9.1-9.1 0-5.03 4.07-9.1 9.1-9.1 5.04 0 9.1 4.07 9.1 9.1 0 5.03-4.06 9.1-9.1 9.1z"/>
		<path fill-rule="evenodd" class="s36" d="m281.78 654.85c-2.75 0-4.97-2.22-4.97-4.97 0-2.75 2.22-4.98 4.97-4.98 2.75 0 4.98 2.23 4.98 4.98 0 2.75-2.23 4.97-4.98 4.97z"/>
		<path fill-rule="evenodd" class="s33" d="m114.84 691.9c-2.53 0-4.58-2.05-4.58-4.58 0-2.54 2.05-4.58 4.58-4.58 2.53 0 4.58 2.04 4.58 4.58 0 2.53-2.05 4.58-4.58 4.58z"/>
		<path fill-rule="evenodd" class="s19" d="m686.02 245.04c-2.99 0-5.42-2.42-5.42-5.42 0-2.99 2.43-5.41 5.42-5.41 3 0 5.42 2.42 5.42 5.41 0 3-2.42 5.42-5.42 5.42z"/>
		<path fill-rule="evenodd" class="s60" d="m378.88 235.41c-3.49 0-6.31-2.82-6.31-6.31 0-3.48 2.82-6.3 6.31-6.3 3.48 0 6.3 2.82 6.3 6.3 0 3.49-2.82 6.31-6.3 6.31z"/>
		<path fill-rule="evenodd" class="s65" d="m695.24 771.59c-2.46 0-4.45-1.99-4.45-4.45 0-2.46 1.99-4.45 4.45-4.45 2.46 0 4.45 1.99 4.45 4.45 0 2.46-1.99 4.45-4.45 4.45z"/>
		<path fill-rule="evenodd" class="s83" d="m111.78 478.35c-2.67 0-4.84-2.16-4.84-4.83 0-2.68 2.17-4.84 4.84-4.84 2.68 0 4.84 2.16 4.84 4.84 0 2.67-2.16 4.83-4.84 4.83z"/>
		<path fill-rule="evenodd" class="s63" d="m178.42 69.11c-4.28 0-7.75-3.46-7.75-7.75 0-4.28 3.47-7.75 7.75-7.75 4.29 0 7.75 3.47 7.75 7.75 0 4.29-3.46 7.75-7.75 7.75z"/>
		<path fill-rule="evenodd" class="s84" d="m193.36 28.24c-4.93 0-8.92-3.99-8.92-8.92 0-4.94 3.99-8.93 8.92-8.93 4.94 0 8.92 3.99 8.92 8.93 0 4.93-3.98 8.92-8.92 8.92z"/>
		<path fill-rule="evenodd" class="s78" d="m474.14 661.62c-4.4 0-7.96-3.55-7.96-7.96 0-4.4 3.56-7.96 7.96-7.96 4.41 0 7.97 3.56 7.97 7.96 0 4.41-3.56 7.96-7.97 7.96z"/>
		<path fill-rule="evenodd" class="s86" d="m378.38 288.53c-2.43 0-4.4-1.96-4.4-4.4 0-2.44 1.97-4.41 4.4-4.41 2.44 0 4.41 1.97 4.41 4.41 0 2.44-1.97 4.4-4.41 4.4z"/>
		<path fill-rule="evenodd" class="s3" d="m421.26 117.54c-4.27 0-7.71-3.45-7.71-7.71 0-4.27 3.44-7.72 7.71-7.72 4.27 0 7.71 3.45 7.71 7.72 0 4.26-3.44 7.71-7.71 7.71z"/>
		<path fill-rule="evenodd" class="s45" d="m553.3 690.02c-3.29 0-5.94-2.66-5.94-5.94 0-3.28 2.65-5.94 5.94-5.94 3.28 0 5.93 2.66 5.93 5.94 0 3.28-2.65 5.94-5.93 5.94z"/>
		<path fill-rule="evenodd" class="s26" d="m685.87 298.41c-2.73 0-4.93-2.21-4.93-4.94 0-2.73 2.2-4.94 4.93-4.94 2.73 0 4.94 2.21 4.94 4.94 0 2.73-2.21 4.94-4.94 4.94z"/>
		<path fill-rule="evenodd" class="s73" d="m19.16 674.02c-2.06 0-3.73-1.66-3.73-3.73 0-2.06 1.67-3.73 3.73-3.73 2.06 0 3.73 1.67 3.73 3.73 0 2.07-1.67 3.73-3.73 3.73z"/>
		<path fill-rule="evenodd" class="s43" d="m213.37 177.11c-3.84 0-6.95-3.11-6.95-6.96 0-3.84 3.11-6.95 6.95-6.95 3.85 0 6.96 3.11 6.96 6.95 0 3.85-3.11 6.96-6.96 6.96z"/>
		<path fill-rule="evenodd" class="s27" d="m166.56 256.56c-3.01 0-5.43-2.42-5.43-5.43 0-3 2.42-5.42 5.43-5.42 3 0 5.42 2.42 5.42 5.42 0 3.01-2.42 5.43-5.42 5.43z"/>
		<path fill-rule="evenodd" class="s63" d="m663.36 727.16c-3.25 0-5.88-2.63-5.88-5.89 0-3.25 2.63-5.88 5.88-5.88 3.26 0 5.89 2.63 5.89 5.88 0 3.26-2.63 5.89-5.89 5.89z"/>
		<path fill-rule="evenodd" class="s48" d="m758.5 187.4c-4.16 0-7.53-3.36-7.53-7.53 0-4.17 3.37-7.53 7.53-7.53 4.17 0 7.54 3.36 7.54 7.53 0 4.17-3.37 7.53-7.54 7.53z"/>
		<path fill-rule="evenodd" class="s91" d="m343.04 473.15c-4.56 0-8.25-3.69-8.25-8.26 0-4.56 3.69-8.25 8.25-8.25 4.57 0 8.26 3.69 8.26 8.25 0 4.57-3.69 8.26-8.26 8.26z"/>
		<path fill-rule="evenodd" class="s58" d="m359.96 765.99c-2.59 0-4.68-2.09-4.68-4.68 0-2.59 2.09-4.69 4.68-4.69 2.59 0 4.68 2.1 4.68 4.69 0 2.59-2.09 4.68-4.68 4.68z"/>
		<path fill-rule="evenodd" class="s17" d="m498.94 97.82c-4.31 0-7.8-3.49-7.8-7.8 0-4.31 3.49-7.8 7.8-7.8 4.31 0 7.8 3.49 7.8 7.8 0 4.31-3.49 7.8-7.8 7.8z"/>
		<path fill-rule="evenodd" class="s84" d="m130.32 452.82c-3.73 0-6.75-3.01-6.75-6.74 0-3.73 3.02-6.74 6.75-6.74 3.72 0 6.74 3.01 6.74 6.74 0 3.73-3.02 6.74-6.74 6.74z"/>
		<path fill-rule="evenodd" class="s86" d="m647.38 366.19c-3.19 0-5.78-2.58-5.78-5.78 0-3.19 2.59-5.77 5.78-5.77 3.2 0 5.78 2.58 5.78 5.77 0 3.2-2.58 5.78-5.78 5.78z"/>
		<path fill-rule="evenodd" class="s62" d="m556.12 134.47c-2.68 0-4.86-2.17-4.86-4.85 0-2.69 2.18-4.86 4.86-4.86 2.69 0 4.86 2.17 4.86 4.86 0 2.68-2.17 4.85-4.86 4.85z"/>
		<path fill-rule="evenodd" class="s71" d="m444.78 530.66c-4.85 0-8.76-3.92-8.76-8.77 0-4.85 3.91-8.76 8.76-8.76 4.85 0 8.77 3.91 8.77 8.76 0 4.85-3.92 8.77-8.77 8.77z"/>
		<path fill-rule="evenodd" class="s26" d="m132.25 575.19c-4.71 0-8.53-3.81-8.53-8.52 0-4.72 3.82-8.53 8.53-8.53 4.72 0 8.53 3.81 8.53 8.53 0 4.71-3.81 8.52-8.53 8.52z"/>
		<path fill-rule="evenodd" class="s57" d="m59.93 742.81c-2.98 0-5.38-2.4-5.38-5.37 0-2.97 2.4-5.38 5.38-5.38 2.97 0 5.37 2.41 5.37 5.38 0 2.97-2.4 5.37-5.37 5.37z"/>
		<path fill-rule="evenodd" class="s80" d="m562.02 744.67c-4.11 0-7.43-3.33-7.43-7.43 0-4.11 3.32-7.43 7.43-7.43 4.11 0 7.43 3.32 7.43 7.43 0 4.1-3.32 7.43-7.43 7.43z"/>
		<path fill-rule="evenodd" class="s1" d="m309.68 791.45c-3.94 0-7.12-3.18-7.12-7.12 0-3.94 3.18-7.12 7.12-7.12 3.93 0 7.12 3.18 7.12 7.12 0 3.94-3.19 7.12-7.12 7.12z"/>
		<path fill-rule="evenodd" class="s72" d="m436.19 285.92c-2.85 0-5.15-2.3-5.15-5.15 0-2.84 2.3-5.14 5.15-5.14 2.84 0 5.14 2.3 5.14 5.14 0 2.85-2.3 5.15-5.14 5.15z"/>
		<path fill-rule="evenodd" class="s24" d="m137.68 710.75c-3.72 0-6.72-3.01-6.72-6.73 0-3.71 3-6.72 6.72-6.72 3.72 0 6.72 3.01 6.72 6.72 0 3.72-3 6.73-6.72 6.73z"/>
		<path fill-rule="evenodd" class="s25" d="m300.31 158.84c-2.67 0-4.82-2.16-4.82-4.83 0-2.67 2.15-4.83 4.82-4.83 2.67 0 4.83 2.16 4.83 4.83 0 2.67-2.16 4.83-4.83 4.83z"/>
		<path fill-rule="evenodd" class="s52" d="m115.07 16.22c-2.58 0-4.66-2.08-4.66-4.65 0-2.58 2.08-4.66 4.66-4.66 2.57 0 4.65 2.08 4.65 4.66 0 2.57-2.08 4.65-4.65 4.65z"/>
		<path fill-rule="evenodd" class="s27" d="m512.71 268.5c-4.69 0-8.48-3.79-8.48-8.48 0-4.7 3.79-8.49 8.48-8.49 4.7 0 8.49 3.79 8.49 8.49 0 4.69-3.79 8.48-8.49 8.48z"/>
		<path fill-rule="evenodd" class="s22" d="m355.03 351.25c-1.86 0-3.36-1.5-3.36-3.36 0-1.85 1.5-3.35 3.36-3.35 1.86 0 3.36 1.5 3.36 3.35 0 1.86-1.5 3.36-3.36 3.36z"/>
		<path fill-rule="evenodd" class="s73" d="m174.04 647.81c-3.91 0-7.06-3.15-7.06-7.05 0-3.91 3.15-7.06 7.06-7.06 3.9 0 7.06 3.15 7.06 7.06 0 3.9-3.16 7.05-7.06 7.05z"/>
		<path fill-rule="evenodd" class="s17" d="m339.59 636.88c-2.69 0-4.87-2.18-4.87-4.88 0-2.69 2.18-4.87 4.87-4.87 2.7 0 4.88 2.18 4.88 4.87 0 2.7-2.18 4.88-4.88 4.88z"/>
		<path fill-rule="evenodd" class="s4" d="m230.73 407.21c-1.95 0-3.52-1.57-3.52-3.52 0-1.94 1.57-3.52 3.52-3.52 1.94 0 3.52 1.58 3.52 3.52 0 1.95-1.58 3.52-3.52 3.52z"/>
		<path fill-rule="evenodd" class="s63" d="m688.31 624.12c-3.94 0-7.12-3.18-7.12-7.12 0-3.94 3.18-7.12 7.12-7.12 3.94 0 7.12 3.18 7.12 7.12 0 3.94-3.18 7.12-7.12 7.12z"/>
		<path fill-rule="evenodd" class="s72" d="m558.75 216.32c-2.59 0-4.68-2.09-4.68-4.68 0-2.59 2.09-4.68 4.68-4.68 2.59 0 4.68 2.09 4.68 4.68 0 2.59-2.09 4.68-4.68 4.68z"/>
		<path fill-rule="evenodd" class="s90" d="m535.99 357.07c-3.02 0-5.45-2.43-5.45-5.45 0-3.01 2.43-5.44 5.45-5.44 3.01 0 5.44 2.43 5.44 5.44 0 3.02-2.43 5.45-5.44 5.45z"/>
		<path fill-rule="evenodd" class="s28" d="m781.53 573.9c-3.81 0-6.88-3.08-6.88-6.88 0-3.8 3.07-6.88 6.88-6.88 3.8 0 6.87 3.08 6.87 6.88 0 3.8-3.07 6.88-6.87 6.88z"/>
		<path fill-rule="evenodd" class="s46" d="m669.78 346.34c-3.1 0-5.6-2.51-5.6-5.61 0-3.09 2.5-5.6 5.6-5.6 3.1 0 5.6 2.51 5.6 5.6 0 3.1-2.5 5.61-5.6 5.61z"/>
		<path fill-rule="evenodd" class="s5" d="m345.16 580.83c-2.23 0-4.03-1.8-4.03-4.03 0-2.23 1.8-4.03 4.03-4.03 2.23 0 4.03 1.8 4.03 4.03 0 2.23-1.8 4.03-4.03 4.03z"/>
		<path fill-rule="evenodd" class="s43" d="m116.62 148.81c-2.52 0-4.56-2.04-4.56-4.56 0-2.53 2.04-4.57 4.56-4.57 2.52 0 4.56 2.04 4.56 4.57 0 2.52-2.04 4.56-4.56 4.56z"/>
		<path fill-rule="evenodd" class="s16" d="m302.19 466.24c-4.06 0-7.35-3.29-7.35-7.35 0-4.07 3.29-7.35 7.35-7.35 4.07 0 7.35 3.28 7.35 7.35 0 4.06-3.28 7.35-7.35 7.35z"/>
		<path fill-rule="evenodd" class="s13" d="m561.46 522.54c-1.82 0-3.3-1.48-3.3-3.3 0-1.82 1.48-3.3 3.3-3.3 1.82 0 3.3 1.48 3.3 3.3 0 1.82-1.48 3.3-3.3 3.3z"/>
		<path fill-rule="evenodd" class="s68" d="m736.05 432.93c-3.64 0-6.59-2.94-6.59-6.58 0-3.64 2.95-6.59 6.59-6.59 3.64 0 6.58 2.95 6.58 6.59 0 3.64-2.94 6.58-6.58 6.58z"/>
		<path fill-rule="evenodd" class="s21" d="m251.88 160.94c-3.59 0-6.48-2.89-6.48-6.47 0-3.58 2.89-6.48 6.48-6.48 3.58 0 6.47 2.9 6.47 6.48 0 3.58-2.89 6.47-6.47 6.47z"/>
		<path fill-rule="evenodd" class="s26" d="m369.9 628.54c-3.06 0-5.53-2.47-5.53-5.53 0-3.06 2.47-5.53 5.53-5.53 3.06 0 5.54 2.47 5.54 5.53 0 3.06-2.48 5.53-5.54 5.53z"/>
		<path fill-rule="evenodd" class="s57" d="m175.92 339.85c-3.24 0-5.85-2.61-5.85-5.85 0-3.24 2.61-5.85 5.85-5.85 3.24 0 5.85 2.61 5.85 5.85 0 3.24-2.61 5.85-5.85 5.85z"/>
		<path fill-rule="evenodd" class="s36" d="m431.54 261.77c-3.89 0-7.03-3.14-7.03-7.02 0-3.89 3.14-7.03 7.03-7.03 3.88 0 7.03 3.14 7.03 7.03 0 3.88-3.15 7.02-7.03 7.02z"/>
		<path fill-rule="evenodd" class="s69" d="m13.45 34.01c-2.88 0-5.21-2.32-5.21-5.2 0-2.88 2.33-5.21 5.21-5.21 2.87 0 5.2 2.33 5.2 5.21 0 2.88-2.33 5.2-5.2 5.2z"/>
		<path fill-rule="evenodd" class="s19" d="m697.82 680.93c-2.65 0-4.8-2.14-4.8-4.79 0-2.66 2.15-4.8 4.8-4.8 2.65 0 4.79 2.14 4.79 4.8 0 2.65-2.14 4.79-4.79 4.79z"/>
		<path fill-rule="evenodd" class="s61" d="m731.47 700.12c-2.83 0-5.11-2.28-5.11-5.11 0-2.82 2.28-5.1 5.11-5.1 2.82 0 5.1 2.28 5.1 5.1 0 2.83-2.28 5.11-5.1 5.11z"/>
		<path fill-rule="evenodd" class="s74" d="m453.38 574.96c-3.59 0-6.5-2.9-6.5-6.5 0-3.59 2.91-6.49 6.5-6.49 3.6 0 6.5 2.9 6.5 6.49 0 3.6-2.9 6.5-6.5 6.5z"/>
		<path fill-rule="evenodd" class="s41" d="m638 452.35c-4.67 0-8.45-3.78-8.45-8.45 0-4.67 3.78-8.45 8.45-8.45 4.67 0 8.45 3.78 8.45 8.45 0 4.67-3.78 8.45-8.45 8.45z"/>
		<path fill-rule="evenodd" class="s41" d="m307.8 718.48c-3.07 0-5.56-2.48-5.56-5.56 0-3.07 2.49-5.56 5.56-5.56 3.08 0 5.56 2.49 5.56 5.56 0 3.08-2.48 5.56-5.56 5.56z"/>
		<path fill-rule="evenodd" class="s42" d="m332.93 281.39c-3.63 0-6.57-2.94-6.57-6.58 0-3.63 2.94-6.57 6.57-6.57 3.64 0 6.57 2.94 6.57 6.57 0 3.64-2.93 6.58-6.57 6.58z"/>
		<path fill-rule="evenodd" class="s65" d="m484.79 591.11c-4.08 0-7.38-3.3-7.38-7.39 0-4.08 3.3-7.38 7.38-7.38 4.08 0 7.38 3.3 7.38 7.38 0 4.09-3.3 7.39-7.38 7.39z"/>
		<path fill-rule="evenodd" class="s75" d="m433.18 220.76c-3.66 0-6.61-2.95-6.61-6.61 0-3.65 2.95-6.6 6.61-6.6 3.65 0 6.6 2.95 6.6 6.6 0 3.66-2.95 6.61-6.6 6.61z"/>
		<path fill-rule="evenodd" class="s16" d="m84.9 453.53c-3.1 0-5.6-2.5-5.6-5.6 0-3.09 2.5-5.59 5.6-5.59 3.09 0 5.59 2.5 5.59 5.59 0 3.1-2.5 5.6-5.59 5.6z"/>
		<path fill-rule="evenodd" class="s80" d="m348.96 228.08c-2.9 0-5.25-2.35-5.25-5.25 0-2.91 2.35-5.26 5.25-5.26 2.91 0 5.25 2.35 5.25 5.26 0 2.9-2.34 5.25-5.25 5.25z"/>
		<path fill-rule="evenodd" class="s79" d="m270.18 412.41c-4.12 0-7.46-3.34-7.46-7.47 0-4.12 3.34-7.46 7.46-7.46 4.13 0 7.47 3.34 7.47 7.46 0 4.13-3.34 7.47-7.47 7.47z"/>
		<path fill-rule="evenodd" class="s52" d="m407.36 70c-2.93 0-5.29-2.36-5.29-5.29 0-2.93 2.36-5.3 5.29-5.3 2.93 0 5.3 2.37 5.3 5.3 0 2.93-2.37 5.29-5.3 5.29z"/>
		<path fill-rule="evenodd" class="s60" d="m729.01 141.97c-4 0-7.23-3.23-7.23-7.23 0-4 3.23-7.23 7.23-7.23 3.99 0 7.22 3.23 7.22 7.23 0 4-3.23 7.23-7.22 7.23z"/>
		<path fill-rule="evenodd" class="s9" d="m761.41 229.78c-3.61 0-6.53-2.92-6.53-6.53 0-3.61 2.92-6.53 6.53-6.53 3.61 0 6.53 2.92 6.53 6.53 0 3.61-2.92 6.53-6.53 6.53z"/>
		<path fill-rule="evenodd" class="s62" d="m652.6 571.35c-4.05 0-7.32-3.27-7.32-7.31 0-4.05 3.27-7.32 7.32-7.32 4.04 0 7.31 3.27 7.31 7.32 0 4.04-3.27 7.31-7.31 7.31z"/>
		<path fill-rule="evenodd" class="s57" d="m136.64 187.37c-3.03 0-5.48-2.45-5.48-5.47 0-3.03 2.45-5.48 5.48-5.48 3.03 0 5.48 2.45 5.48 5.48 0 3.02-2.45 5.47-5.48 5.47z"/>
		<path fill-rule="evenodd" class="s20" d="m272.78 737.98c-5.04 0-9.11-4.07-9.11-9.11 0-5.04 4.07-9.11 9.11-9.11 5.04 0 9.11 4.07 9.11 9.11 0 5.04-4.07 9.11-9.11 9.11z"/>
		<path fill-rule="evenodd" class="s51" d="m730.43 288.82c-2.42 0-4.39-1.97-4.39-4.39 0-2.43 1.97-4.39 4.39-4.39 2.43 0 4.39 1.96 4.39 4.39 0 2.42-1.96 4.39-4.39 4.39z"/>
		<path fill-rule="evenodd" class="s52" d="m531.92 786.65c-6.07 0-10.98-4.91-10.98-10.98 0-6.07 4.91-10.98 10.98-10.98 6.07 0 10.98 4.91 10.98 10.98 0 6.07-4.91 10.98-10.98 10.98z"/>
		<path fill-rule="evenodd" class="s33" d="m45.48 98.68c-2.77 0-5.01-2.23-5.01-5 0-2.77 2.24-5.01 5.01-5.01 2.76 0 5 2.24 5 5.01 0 2.77-2.24 5-5 5z"/>
		<path fill-rule="evenodd" class="s39" d="m287.75 303.62c-2.89 0-5.22-2.33-5.22-5.21 0-2.89 2.33-5.22 5.22-5.22 2.88 0 5.21 2.33 5.21 5.22 0 2.88-2.33 5.21-5.21 5.21z"/>
		<path fill-rule="evenodd" class="s6" d="m563.77 623.57c-3.88 0-7.01-3.13-7.01-7.01 0-3.87 3.13-7 7.01-7 3.87 0 7.01 3.13 7.01 7 0 3.88-3.14 7.01-7.01 7.01z"/>
		<path fill-rule="evenodd" class="s36" d="m28.83 248.11c-4.02 0-7.28-3.25-7.28-7.28 0-4.02 3.26-7.28 7.28-7.28 4.03 0 7.28 3.26 7.28 7.28 0 4.03-3.25 7.28-7.28 7.28z"/>
		<path fill-rule="evenodd" class="s8" d="m611.87 185.81c-3.73 0-6.75-3.01-6.75-6.74 0-3.74 3.02-6.75 6.75-6.75 3.73 0 6.75 3.01 6.75 6.75 0 3.73-3.02 6.74-6.75 6.74z"/>
		<path fill-rule="evenodd" class="s55" d="m12.16 758.08c-2.6 0-4.7-2.11-4.7-4.71 0-2.59 2.1-4.7 4.7-4.7 2.6 0 4.7 2.11 4.7 4.7 0 2.6-2.1 4.71-4.7 4.71z"/>
		<path fill-rule="evenodd" class="s81" d="m466.09 713.68c-3.99 0-7.2-3.22-7.2-7.2 0-3.98 3.21-7.2 7.2-7.2 3.98 0 7.2 3.22 7.2 7.2 0 3.98-3.22 7.2-7.2 7.2z"/>
		<path fill-rule="evenodd" class="s35" d="m47.2 448.05c-4.75 0-8.59-3.84-8.59-8.59 0-4.75 3.84-8.59 8.59-8.59 4.75 0 8.58 3.84 8.58 8.59 0 4.75-3.83 8.59-8.58 8.59z"/>
		<path fill-rule="evenodd" class="s43" d="m256.27 631.14c-4.92 0-8.89-3.97-8.89-8.88 0-4.91 3.97-8.88 8.89-8.88 4.91 0 8.88 3.97 8.88 8.88 0 4.91-3.97 8.88-8.88 8.88z"/>
		<path fill-rule="evenodd" class="s71" d="m552.99 318.43c-1.47 0-2.66-1.19-2.66-2.66 0-1.47 1.19-2.66 2.66-2.66 1.47 0 2.66 1.19 2.66 2.66 0 1.47-1.19 2.66-2.66 2.66z"/>
		<path fill-rule="evenodd" class="s9" d="m349.76 192.01c-2.84 0-5.13-2.29-5.13-5.12 0-2.83 2.29-5.12 5.13-5.12 2.83 0 5.12 2.29 5.12 5.12 0 2.83-2.29 5.12-5.12 5.12z"/>
		<path fill-rule="evenodd" class="s38" d="m122.48 397.05c-4.08 0-7.38-3.3-7.38-7.38 0-4.08 3.3-7.38 7.38-7.38 4.08 0 7.38 3.3 7.38 7.38 0 4.08-3.3 7.38-7.38 7.38z"/>
		<path fill-rule="evenodd" class="s68" d="m252.89 95.2c-3.18 0-5.76-2.58-5.76-5.76 0-3.18 2.58-5.76 5.76-5.76 3.19 0 5.76 2.58 5.76 5.76 0 3.18-2.57 5.76-5.76 5.76z"/>
		<path fill-rule="evenodd" class="s17" d="m136.1 645.27c-3.84 0-6.94-3.1-6.94-6.93 0-3.84 3.1-6.94 6.94-6.94 3.83 0 6.93 3.1 6.93 6.94 0 3.83-3.1 6.93-6.93 6.93z"/>
		<path fill-rule="evenodd" class="s20" d="m366.12 46.07c-3.09 0-5.58-2.49-5.58-5.58 0-3.09 2.49-5.59 5.58-5.59 3.09 0 5.59 2.5 5.59 5.59 0 3.09-2.5 5.58-5.59 5.58z"/>
		<path fill-rule="evenodd" class="s3" d="m80.88 505.55c-3.25 0-5.87-2.62-5.87-5.87 0-3.25 2.62-5.88 5.87-5.88 3.25 0 5.87 2.63 5.87 5.88 0 3.25-2.62 5.87-5.87 5.87z"/>
		<path fill-rule="evenodd" class="s81" d="m182 603.69c-3.43 0-6.2-2.77-6.2-6.2 0-3.43 2.77-6.2 6.2-6.2 3.42 0 6.19 2.77 6.19 6.2 0 3.43-2.77 6.2-6.19 6.2z"/>
		<path fill-rule="evenodd" class="s73" d="m727.39 731.89c-3.75 0-6.78-3.03-6.78-6.78 0-3.74 3.03-6.77 6.78-6.77 3.74 0 6.77 3.03 6.77 6.77 0 3.75-3.03 6.78-6.77 6.78z"/>
		<path fill-rule="evenodd" class="s39" d="m141.15 361.59c-1.68 0-3.03-1.35-3.03-3.03 0-1.68 1.35-3.03 3.03-3.03 1.68 0 3.03 1.35 3.03 3.03 0 1.68-1.35 3.03-3.03 3.03z"/>
		<path fill-rule="evenodd" class="s62" d="m457.19 440.68c-2.37 0-4.29-1.92-4.29-4.29 0-2.37 1.92-4.29 4.29-4.29 2.37 0 4.29 1.92 4.29 4.29 0 2.37-1.92 4.29-4.29 4.29z"/>
		<path fill-rule="evenodd" class="s3" d="m719.24 654.75c-3.11 0-5.62-2.51-5.62-5.61 0-3.11 2.51-5.62 5.62-5.62 3.1 0 5.61 2.51 5.61 5.62 0 3.1-2.51 5.61-5.61 5.61z"/>
		<path fill-rule="evenodd" class="s24" d="m530.86 194.5c-3.88 0-7.01-3.13-7.01-7.01 0-3.87 3.13-7.01 7.01-7.01 3.88 0 7.01 3.14 7.01 7.01 0 3.88-3.13 7.01-7.01 7.01z"/>
		<path fill-rule="evenodd" class="s21" d="m69.46 185.02c-3.84 0-6.95-3.1-6.95-6.95 0-3.85 3.11-6.95 6.95-6.95 3.85 0 6.96 3.1 6.96 6.95 0 3.85-3.11 6.95-6.96 6.95z"/>
		<path fill-rule="evenodd" class="s90" d="m562.96 497.89c-3.02 0-5.45-2.43-5.45-5.44 0-3.02 2.43-5.45 5.45-5.45 3.01 0 5.44 2.43 5.44 5.45 0 3.01-2.43 5.44-5.44 5.44z"/>
		<path fill-rule="evenodd" class="s16" d="m721.94 31.83c-4.84 0-8.76-3.92-8.76-8.76 0-4.84 3.92-8.76 8.76-8.76 4.84 0 8.76 3.92 8.76 8.76 0 4.84-3.92 8.76-8.76 8.76z"/>
		<path fill-rule="evenodd" class="s25" d="m543.58 27.7c-4.66 0-8.43-3.77-8.43-8.44 0-4.66 3.77-8.43 8.43-8.43 4.67 0 8.44 3.77 8.44 8.43 0 4.67-3.77 8.44-8.44 8.44z"/>
		<path fill-rule="evenodd" class="s92" d="m575.99 260.14c-4.4 0-7.95-3.55-7.95-7.95 0-4.39 3.55-7.94 7.95-7.94 4.39 0 7.94 3.55 7.94 7.94 0 4.4-3.55 7.95-7.94 7.95z"/>
		<path fill-rule="evenodd" class="s38" d="m317.65 358.83c-2.16 0-3.91-1.75-3.91-3.91 0-2.16 1.75-3.9 3.91-3.9 2.15 0 3.9 1.74 3.9 3.9 0 2.16-1.75 3.91-3.9 3.91z"/>
		<path fill-rule="evenodd" class="s22" d="m50.69 128.1c-2.18 0-3.93-1.75-3.93-3.93 0-2.17 1.75-3.92 3.93-3.92 2.17 0 3.92 1.75 3.92 3.92 0 2.18-1.75 3.93-3.92 3.93z"/>
		<path fill-rule="evenodd" class="s13" d="m756.09 615.42c-2.73 0-4.94-2.21-4.94-4.94 0-2.74 2.21-4.94 4.94-4.94 2.73 0 4.94 2.2 4.94 4.94 0 2.73-2.21 4.94-4.94 4.94z"/>
		<path fill-rule="evenodd" class="s44" d="m318.4 506.57c-3.19 0-5.76-2.57-5.76-5.76 0-3.19 2.57-5.77 5.76-5.77 3.19 0 5.77 2.58 5.77 5.77 0 3.19-2.58 5.76-5.77 5.76z"/>
		<path fill-rule="evenodd" class="s76" d="m67.3 18.02c-2.02 0-3.66-1.64-3.66-3.66 0-2.02 1.64-3.66 3.66-3.66 2.02 0 3.65 1.64 3.65 3.66 0 2.02-1.63 3.66-3.65 3.66z"/>
		<path fill-rule="evenodd" class="s84" d="m715.69 220.05c-5.07 0-9.16-4.1-9.16-9.16 0-5.07 4.09-9.16 9.16-9.16 5.06 0 9.16 4.09 9.16 9.16 0 5.06-4.1 9.16-9.16 9.16z"/>
		<path fill-rule="evenodd" class="s2" d="m399.49 383.85c-3.57 0-6.46-2.89-6.46-6.47 0-3.57 2.89-6.46 6.46-6.46 3.58 0 6.47 2.89 6.47 6.46 0 3.58-2.89 6.47-6.47 6.47z"/>
		<path fill-rule="evenodd" class="s73" d="m121.92 292.25c-4.03 0-7.28-3.25-7.28-7.28 0-4.03 3.25-7.28 7.28-7.28 4.03 0 7.28 3.25 7.28 7.28 0 4.03-3.25 7.28-7.28 7.28z"/>
		<path fill-rule="evenodd" class="s28" d="m47.89 711.74c-2 0-3.61-1.61-3.61-3.61 0-1.99 1.61-3.61 3.61-3.61 1.99 0 3.61 1.62 3.61 3.61 0 2-1.62 3.61-3.61 3.61z"/>
		<path fill-rule="evenodd" class="s87" d="m663.43 315.1c-2.49 0-4.49-2.01-4.49-4.49 0-2.49 2-4.5 4.49-4.5 2.48 0 4.49 2.01 4.49 4.5 0 2.48-2.01 4.49-4.49 4.49z"/>
		<path fill-rule="evenodd" class="s51" d="m548.16 98.22c-3.44 0-6.22-2.78-6.22-6.23 0-3.44 2.78-6.22 6.22-6.22 3.45 0 6.23 2.78 6.23 6.22 0 3.45-2.78 6.23-6.23 6.23z"/>
		<path fill-rule="evenodd" class="s43" d="m775.25 26.57c-3.45 0-6.24-2.79-6.24-6.24 0-3.45 2.79-6.24 6.24-6.24 3.45 0 6.24 2.79 6.24 6.24 0 3.45-2.79 6.24-6.24 6.24z"/>
		<path fill-rule="evenodd" class="s32" d="m327.89 688.2c-2.37 0-4.28-1.92-4.28-4.28 0-2.37 1.91-4.28 4.28-4.28 2.36 0 4.28 1.91 4.28 4.28 0 2.36-1.92 4.28-4.28 4.28z"/>
		<path fill-rule="evenodd" class="s19" d="m240.4 711.24c-2.92 0-5.27-2.36-5.27-5.27 0-2.92 2.35-5.27 5.27-5.27 2.91 0 5.27 2.35 5.27 5.27 0 2.91-2.36 5.27-5.27 5.27z"/>
	</g>
</svg>